Hubballi-Regular_Glyphs.ufo
<glyph name="percent" format="1">
  <advance width="814"/>
  <unicode hex="0025"/>
  <outline>
    <contour>
      <point x="203" y="542" type="curve" smooth="yes"/>
      <point x="127" y="542"/>
      <point x="69" y="478"/>
      <point x="69" y="380" type="curve" smooth="yes"/>
      <point x="69" y="290"/>
      <point x="128" y="220"/>
      <point x="203" y="220" type="curve" smooth="yes"/>
      <point x="285" y="220"/>
      <point x="336" y="290"/>
      <point x="336" y="381" type="curve" smooth="yes"/>
      <point x="336" y="478"/>
      <point x="274" y="542"/>
    </contour>
    <contour>
      <point x="572" y="497" type="line" smooth="yes"/>
      <point x="574" y="501"/>
      <point x="575" y="505"/>
      <point x="575" y="509" type="curve" smooth="yes"/>
      <point x="575" y="525"/>
      <point x="563" y="535"/>
      <point x="551" y="535" type="curve" smooth="yes"/>
      <point x="542" y="535"/>
      <point x="533" y="531"/>
      <point x="528" y="523" type="curve" smooth="yes"/>
      <point x="245" y="38" type="line" smooth="yes"/>
      <point x="243" y="34"/>
      <point x="242" y="30"/>
      <point x="242" y="26" type="curve" smooth="yes"/>
      <point x="242" y="10"/>
      <point x="254" y="0"/>
      <point x="266" y="0" type="curve" smooth="yes"/>
      <point x="275" y="0"/>
      <point x="284" y="4"/>
      <point x="289" y="12" type="curve" smooth="yes"/>
    </contour>
    <contour>
      <point x="203" y="492" type="curve" smooth="yes"/>
      <point x="252" y="492"/>
      <point x="286" y="442"/>
      <point x="286" y="381" type="curve" smooth="yes"/>
      <point x="286" y="324"/>
      <point x="259" y="270"/>
      <point x="203" y="270" type="curve" smooth="yes"/>
      <point x="152" y="270"/>
      <point x="119" y="324"/>
      <point x="119" y="380" type="curve" smooth="yes"/>
      <point x="119" y="442"/>
      <point x="151" y="492"/>
    </contour>
    <contour>
      <point x="612" y="312" type="curve" smooth="yes"/>
      <point x="536" y="312"/>
      <point x="478" y="248"/>
      <point x="478" y="150" type="curve" smooth="yes"/>
      <point x="478" y="60"/>
      <point x="537" y="-10"/>
      <point x="612" y="-10" type="curve" smooth="yes"/>
      <point x="694" y="-10"/>
      <point x="745" y="60"/>
      <point x="745" y="151" type="curve" smooth="yes"/>
      <point x="745" y="248"/>
      <point x="683" y="312"/>
    </contour>
    <contour>
      <point x="612" y="262" type="curve" smooth="yes"/>
      <point x="661" y="262"/>
      <point x="695" y="212"/>
      <point x="695" y="151" type="curve" smooth="yes"/>
      <point x="695" y="94"/>
      <point x="668" y="40"/>
      <point x="612" y="40" type="curve" smooth="yes"/>
      <point x="561" y="40"/>
      <point x="528" y="94"/>
      <point x="528" y="150" type="curve" smooth="yes"/>
      <point x="528" y="212"/>
      <point x="560" y="262"/>
    </contour>
  </outline>
</glyph>
<glyph name="hyphen" format="1">
  <advance width="420"/>
  <unicode hex="002D"/>
  <outline>
    <contour>
      <point x="109" y="245" type="line" smooth="yes"/>
      <point x="96" y="245"/>
      <point x="84" y="234"/>
      <point x="84" y="220" type="curve" smooth="yes"/>
      <point x="84" y="207"/>
      <point x="96" y="195"/>
      <point x="109" y="195" type="curve" smooth="yes"/>
      <point x="311" y="195" type="line" smooth="yes"/>
      <point x="325" y="195"/>
      <point x="336" y="207"/>
      <point x="336" y="220" type="curve" smooth="yes"/>
      <point x="336" y="234"/>
      <point x="325" y="245"/>
      <point x="311" y="245" type="curve" smooth="yes"/>
    </contour>
  </outline>
</glyph>
<glyph name="period" format="1">
  <advance width="225"/>
  <unicode hex="002E"/>
  <outline>
    <contour>
      <point x="113" y="103" type="curve" smooth="yes"/>
      <point x="85" y="103"/>
      <point x="68" y="81"/>
      <point x="68" y="49" type="curve" smooth="yes"/>
      <point x="68" y="12"/>
      <point x="92" y="-5"/>
      <point x="114" y="-5" type="curve" smooth="yes"/>
      <point x="140" y="-5"/>
      <point x="159" y="11"/>
      <point x="159" y="49" type="curve" smooth="yes"/>
      <point x="159" y="80"/>
      <point x="139" y="103"/>
    </contour>
  </outline>
</glyph>
<glyph name="nine" format="1">
  <advance width="536"/>
  <unicode hex="0039"/>
  <outline>
    <contour>
      <point x="242" y="248" type="curve" smooth="yes"/>
      <point x="160" y="248"/>
      <point x="112" y="291"/>
      <point x="112" y="369" type="curve" smooth="yes"/>
      <point x="112" y="432"/>
      <point x="159" y="494"/>
      <point x="251" y="494" type="curve" smooth="yes"/>
      <point x="332" y="494"/>
      <point x="388" y="440"/>
      <point x="408" y="349" type="curve"/>
      <point x="370" y="289"/>
      <point x="321" y="248"/>
    </contour>
    <contour>
      <point x="233" y="-3" type="curve" smooth="yes"/>
      <point x="386" y="-3"/>
      <point x="466" y="93"/>
      <point x="466" y="270" type="curve" smooth="yes"/>
      <point x="466" y="449"/>
      <point x="376" y="544"/>
      <point x="251" y="544" type="curve" smooth="yes"/>
      <point x="122" y="544"/>
      <point x="62" y="454"/>
      <point x="62" y="369" type="curve" smooth="yes"/>
      <point x="62" y="261"/>
      <point x="126" y="198"/>
      <point x="242" y="198" type="curve" smooth="yes"/>
      <point x="319" y="198"/>
      <point x="373" y="228"/>
      <point x="416" y="277" type="curve"/>
      <point x="416" y="275"/>
      <point x="416" y="272"/>
      <point x="416" y="270" type="curve" smooth="yes"/>
      <point x="416" y="131"/>
      <point x="358" y="47"/>
      <point x="233" y="47" type="curve" smooth="yes"/>
      <point x="213" y="47"/>
      <point x="196" y="50"/>
      <point x="174" y="55" type="curve" smooth="yes"/>
      <point x="160" y="58"/>
      <point x="153" y="60"/>
      <point x="150" y="60" type="curve" smooth="yes"/>
      <point x="136" y="60"/>
      <point x="126" y="47"/>
      <point x="126" y="34" type="curve" smooth="yes"/>
      <point x="126" y="23"/>
      <point x="133" y="14"/>
      <point x="145" y="11" type="curve" smooth="yes"/>
      <point x="173" y="4"/>
      <point x="197" y="-3"/>
    </contour>
  </outline>
</glyph>
<glyph name="question" format="1">
  <advance width="371"/>
  <unicode hex="003F"/>
  <outline>
    <contour>
      <point x="56" y="505" type="curve" smooth="yes"/>
      <point x="48" y="500"/>
      <point x="44" y="492"/>
      <point x="44" y="484" type="curve" smooth="yes"/>
      <point x="44" y="470"/>
      <point x="55" y="459"/>
      <point x="69" y="459" type="curve" smooth="yes"/>
      <point x="74" y="459"/>
      <point x="78" y="461"/>
      <point x="82" y="463" type="curve" smooth="yes"/>
      <point x="114" y="482"/>
      <point x="144" y="494"/>
      <point x="194" y="494" type="curve" smooth="yes"/>
      <point x="254" y="494"/>
      <point x="292" y="460"/>
      <point x="292" y="417" type="curve" smooth="yes"/>
      <point x="292" y="376"/>
      <point x="258" y="348"/>
      <point x="219" y="328" type="curve" smooth="yes"/>
      <point x="141" y="288"/>
      <point x="133" y="253"/>
      <point x="133" y="206" type="curve" smooth="yes"/>
      <point x="133" y="194"/>
      <point x="144" y="182"/>
      <point x="157" y="182" type="curve" smooth="yes"/>
      <point x="170" y="182"/>
      <point x="182" y="192"/>
      <point x="183" y="206" type="curve" smooth="yes"/>
      <point x="185" y="247"/>
      <point x="199" y="262"/>
      <point x="241" y="284" type="curve" smooth="yes"/>
      <point x="300" y="314"/>
      <point x="342" y="358"/>
      <point x="342" y="417" type="curve" smooth="yes"/>
      <point x="342" y="482"/>
      <point x="294" y="544"/>
      <point x="194" y="544" type="curve" smooth="yes"/>
      <point x="132" y="544"/>
      <point x="94" y="530"/>
    </contour>
    <contour>
      <point x="163" y="103" type="curve" smooth="yes"/>
      <point x="135" y="103"/>
      <point x="118" y="81"/>
      <point x="118" y="49" type="curve" smooth="yes"/>
      <point x="118" y="12"/>
      <point x="142" y="-5"/>
      <point x="164" y="-5" type="curve" smooth="yes"/>
      <point x="190" y="-5"/>
      <point x="209" y="11"/>
      <point x="209" y="49" type="curve" smooth="yes"/>
      <point x="209" y="80"/>
      <point x="189" y="103"/>
    </contour>
  </outline>
</glyph>
<glyph name="r" format="1">
  <advance width="346"/>
  <unicode hex="0072"/>
  <outline>
    <contour>
      <point x="110" y="0" type="curve" smooth="yes"/>
      <point x="124" y="0"/>
      <point x="135" y="11"/>
      <point x="135" y="25" type="curve" smooth="yes"/>
      <point x="135" y="227" type="line"/>
      <point x="177" y="291"/>
      <point x="227" y="332"/>
      <point x="305" y="342" type="curve" smooth="yes"/>
      <point x="318" y="344"/>
      <point x="327" y="355"/>
      <point x="327" y="368" type="curve" smooth="yes"/>
      <point x="327" y="381"/>
      <point x="317" y="391"/>
      <point x="303" y="391" type="curve" smooth="yes"/>
      <point x="248" y="391"/>
      <point x="187" y="363"/>
      <point x="135" y="308" type="curve"/>
      <point x="135" y="367" type="line" smooth="yes"/>
      <point x="135" y="381"/>
      <point x="124" y="392"/>
      <point x="110" y="392" type="curve" smooth="yes"/>
      <point x="97" y="392"/>
      <point x="85" y="381"/>
      <point x="85" y="367" type="curve" smooth="yes"/>
      <point x="85" y="25" type="line" smooth="yes"/>
      <point x="85" y="12"/>
      <point x="97" y="0"/>
    </contour>
  </outline>
</glyph>
<glyph name="logicalnot" format="1">
  <advance width="481"/>
  <unicode hex="00AC"/>
  <outline>
    <contour>
      <point x="372" y="119" type="curve" smooth="yes"/>
      <point x="386" y="119"/>
      <point x="397" y="131"/>
      <point x="397" y="144" type="curve" smooth="yes"/>
      <point x="397" y="251" type="line" smooth="yes"/>
      <point x="397" y="265"/>
      <point x="386" y="276"/>
      <point x="372" y="276" type="curve" smooth="yes"/>
      <point x="109" y="276" type="line" smooth="yes"/>
      <point x="96" y="276"/>
      <point x="84" y="265"/>
      <point x="84" y="251" type="curve" smooth="yes"/>
      <point x="84" y="238"/>
      <point x="96" y="226"/>
      <point x="109" y="226" type="curve" smooth="yes"/>
      <point x="347" y="226" type="line"/>
      <point x="347" y="144" type="line" smooth="yes"/>
      <point x="347" y="131"/>
      <point x="359" y="119"/>
    </contour>
  </outline>
</glyph>
<glyph name="macron" format="1">
  <advance width="490"/>
  <unicode hex="00AF"/>
  <outline>
    <contour>
      <point x="346" y="517" type="line" smooth="yes"/>
      <point x="358" y="517"/>
      <point x="368" y="527"/>
      <point x="368" y="539" type="curve" smooth="yes"/>
      <point x="368" y="551"/>
      <point x="358" y="561"/>
      <point x="346" y="561" type="curve" smooth="yes"/>
      <point x="145" y="561" type="line" smooth="yes"/>
      <point x="133" y="561"/>
      <point x="123" y="551"/>
      <point x="123" y="539" type="curve" smooth="yes"/>
      <point x="123" y="527"/>
      <point x="133" y="517"/>
      <point x="145" y="517" type="curve" smooth="yes"/>
    </contour>
  </outline>
</glyph>
<glyph name="twosuperior" format="1">
  <advance width="355"/>
  <unicode hex="00B2"/>
  <outline>
    <contour>
      <point x="86" y="238" type="curve" smooth="yes"/>
      <point x="275" y="238" type="line" smooth="yes"/>
      <point x="287" y="238"/>
      <point x="297" y="248"/>
      <point x="297" y="260" type="curve" smooth="yes"/>
      <point x="297" y="272"/>
      <point x="287" y="282"/>
      <point x="275" y="282" type="curve" smooth="yes"/>
      <point x="141" y="282" type="line"/>
      <point x="195" y="332" type="line" smooth="yes"/>
      <point x="262" y="395"/>
      <point x="278" y="420"/>
      <point x="278" y="457" type="curve" smooth="yes"/>
      <point x="278" y="496"/>
      <point x="251" y="538"/>
      <point x="181" y="538" type="curve" smooth="yes"/>
      <point x="148" y="538"/>
      <point x="121" y="529"/>
      <point x="92" y="511" type="curve" smooth="yes"/>
      <point x="85" y="506"/>
      <point x="82" y="499"/>
      <point x="82" y="491" type="curve" smooth="yes"/>
      <point x="82" y="477"/>
      <point x="94" y="470"/>
      <point x="105" y="470" type="curve" smooth="yes"/>
      <point x="109" y="470"/>
      <point x="113" y="471"/>
      <point x="116" y="473" type="curve" smooth="yes"/>
      <point x="137" y="487"/>
      <point x="156" y="494"/>
      <point x="181" y="494" type="curve" smooth="yes"/>
      <point x="213" y="494"/>
      <point x="234" y="478"/>
      <point x="234" y="457" type="curve" smooth="yes"/>
      <point x="234" y="428"/>
      <point x="214" y="411"/>
      <point x="165" y="364" type="curve" smooth="yes"/>
      <point x="76" y="281" type="line" smooth="yes"/>
      <point x="68" y="274"/>
      <point x="64" y="269"/>
      <point x="64" y="260" type="curve" smooth="yes"/>
      <point x="64" y="248"/>
      <point x="74" y="238"/>
    </contour>
  </outline>
</glyph>
<glyph name="periodcentered" format="1">
  <advance width="225"/>
  <unicode hex="00B7"/>
  <outline>
    <contour>
      <point x="113" y="274" type="curve" smooth="yes"/>
      <point x="85" y="274"/>
      <point x="68" y="252"/>
      <point x="68" y="220" type="curve" smooth="yes"/>
      <point x="68" y="183"/>
      <point x="92" y="166"/>
      <point x="114" y="166" type="curve" smooth="yes"/>
      <point x="140" y="166"/>
      <point x="159" y="182"/>
      <point x="159" y="220" type="curve" smooth="yes"/>
      <point x="159" y="251"/>
      <point x="139" y="274"/>
    </contour>
  </outline>
</glyph>
<glyph name="Iacute" format="1">
  <advance width="256"/>
  <unicode hex="00CD"/>
  <outline>
    <contour>
      <point x="255" y="708" type="curve" smooth="yes"/>
      <point x="262" y="712"/>
      <point x="266" y="720"/>
      <point x="266" y="728" type="curve" smooth="yes"/>
      <point x="266" y="738"/>
      <point x="257" y="749"/>
      <point x="243" y="749" type="curve" smooth="yes"/>
      <point x="240" y="749"/>
      <point x="236" y="748"/>
      <point x="233" y="746" type="curve" smooth="yes"/>
      <point x="186" y="719"/>
      <point x="138" y="687"/>
      <point x="108" y="666" type="curve" smooth="yes"/>
      <point x="102" y="662"/>
      <point x="99" y="655"/>
      <point x="99" y="648" type="curve" smooth="yes"/>
      <point x="99" y="636"/>
      <point x="108" y="626"/>
      <point x="121" y="626" type="curve" smooth="yes"/>
      <point x="125" y="626"/>
      <point x="130" y="627"/>
      <point x="134" y="630" type="curve" smooth="yes"/>
      <point x="162" y="651"/>
      <point x="210" y="681"/>
    </contour>
    <contour>
      <point x="153" y="510" type="line" smooth="yes"/>
      <point x="153" y="524"/>
      <point x="142" y="535"/>
      <point x="128" y="535" type="curve" smooth="yes"/>
      <point x="115" y="535"/>
      <point x="103" y="524"/>
      <point x="103" y="510" type="curve" smooth="yes"/>
      <point x="103" y="25" type="line" smooth="yes"/>
      <point x="103" y="12"/>
      <point x="115" y="0"/>
      <point x="128" y="0" type="curve" smooth="yes"/>
      <point x="142" y="0"/>
      <point x="153" y="11"/>
      <point x="153" y="25" type="curve" smooth="yes"/>
    </contour>
  </outline>
</glyph>
<glyph name="Ntilde" format="1">
  <advance width="635"/>
  <unicode hex="00D1"/>
  <outline>
    <contour>
      <point x="166" y="664" type="curve" smooth="yes"/>
      <point x="163" y="660"/>
      <point x="161" y="655"/>
      <point x="161" y="650" type="curve" smooth="yes"/>
      <point x="161" y="638"/>
      <point x="171" y="628"/>
      <point x="183" y="628" type="curve" smooth="yes"/>
      <point x="190" y="628"/>
      <point x="196" y="631"/>
      <point x="200" y="636" type="curve" smooth="yes"/>
      <point x="217" y="658"/>
      <point x="233" y="675"/>
      <point x="251" y="675" type="curve" smooth="yes"/>
      <point x="268" y="675"/>
      <point x="281" y="664"/>
      <point x="297" y="652" type="curve" smooth="yes"/>
      <point x="321" y="634"/>
      <point x="344" y="622"/>
      <point x="368" y="622" type="curve" smooth="yes"/>
      <point x="402" y="622"/>
      <point x="428" y="641"/>
      <point x="460" y="683" type="curve" smooth="yes"/>
      <point x="463" y="687"/>
      <point x="465" y="691"/>
      <point x="465" y="696" type="curve" smooth="yes"/>
      <point x="465" y="707"/>
      <point x="456" y="718"/>
      <point x="443" y="718" type="curve" smooth="yes"/>
      <point x="437" y="718"/>
      <point x="430" y="715"/>
      <point x="426" y="709" type="curve" smooth="yes"/>
      <point x="406" y="683"/>
      <point x="390" y="666"/>
      <point x="368" y="666" type="curve" smooth="yes"/>
      <point x="352" y="666"/>
      <point x="339" y="676"/>
      <point x="323" y="688" type="curve" smooth="yes"/>
      <point x="299" y="706"/>
      <point x="276" y="719"/>
      <point x="251" y="719" type="curve" smooth="yes"/>
      <point x="223" y="719"/>
      <point x="195" y="700"/>
    </contour>
    <contour>
      <point x="491" y="3"/>
      <point x="499" y="0"/>
      <point x="513" y="0" type="curve" smooth="yes"/>
      <point x="526" y="0"/>
      <point x="537" y="11"/>
      <point x="537" y="25" type="curve" smooth="yes"/>
      <point x="537" y="510" type="line" smooth="yes"/>
      <point x="537" y="524"/>
      <point x="526" y="535"/>
      <point x="512" y="535" type="curve" smooth="yes"/>
      <point x="499" y="535"/>
      <point x="487" y="524"/>
      <point x="487" y="510" type="curve" smooth="yes"/>
      <point x="487" y="91" type="line"/>
      <point x="377" y="235"/>
      <point x="216" y="436"/>
      <point x="149" y="525" type="curve" smooth="yes"/>
      <point x="144" y="532"/>
      <point x="137" y="535"/>
      <point x="122" y="535" type="curve" smooth="yes"/>
      <point x="110" y="535"/>
      <point x="98" y="524"/>
      <point x="98" y="510" type="curve" smooth="yes"/>
      <point x="98" y="25" type="line" smooth="yes"/>
      <point x="98" y="12"/>
      <point x="110" y="0"/>
      <point x="123" y="0" type="curve" smooth="yes"/>
      <point x="137" y="0"/>
      <point x="148" y="11"/>
      <point x="148" y="25" type="curve" smooth="yes"/>
      <point x="148" y="444" type="line"/>
      <point x="238" y="328"/>
      <point x="394" y="133"/>
      <point x="486" y="10" type="curve" smooth="yes"/>
    </contour>
  </outline>
</glyph>
<glyph name="agrave" format="1">
  <advance width="450"/>
  <unicode hex="00E0"/>
  <outline>
    <contour>
      <point x="160" y="611" type="curve" smooth="yes"/>
      <point x="156" y="617"/>
      <point x="149" y="620"/>
      <point x="143" y="620" type="curve" smooth="yes"/>
      <point x="131" y="620"/>
      <point x="121" y="608"/>
      <point x="121" y="598" type="curve" smooth="yes"/>
      <point x="121" y="593"/>
      <point x="123" y="589"/>
      <point x="126" y="585" type="curve" smooth="yes"/>
      <point x="152" y="550"/>
      <point x="169" y="529"/>
      <point x="193" y="491" type="curve" smooth="yes"/>
      <point x="198" y="484"/>
      <point x="205" y="481"/>
      <point x="213" y="481" type="curve" smooth="yes"/>
      <point x="225" y="481"/>
      <point x="234" y="493"/>
      <point x="234" y="504" type="curve" smooth="yes"/>
      <point x="234" y="508"/>
      <point x="233" y="512"/>
      <point x="231" y="515" type="curve" smooth="yes"/>
      <point x="205" y="555"/>
      <point x="188" y="576"/>
    </contour>
    <contour>
      <point x="172" y="50" type="curve" smooth="yes"/>
      <point x="123" y="50"/>
      <point x="100" y="79"/>
      <point x="100" y="106" type="curve" smooth="yes"/>
      <point x="100" y="124"/>
      <point x="105" y="140"/>
      <point x="121" y="156" type="curve" smooth="yes"/>
      <point x="148" y="183"/>
      <point x="191" y="197"/>
      <point x="255" y="197" type="curve" smooth="yes"/>
      <point x="277" y="197"/>
      <point x="299" y="196"/>
      <point x="324" y="194" type="curve"/>
      <point x="324" y="129" type="line"/>
      <point x="282" y="75"/>
      <point x="236" y="50"/>
    </contour>
    <contour>
      <point x="368" y="9" type="curve" smooth="yes"/>
      <point x="373" y="4"/>
      <point x="379" y="1"/>
      <point x="386" y="1" type="curve" smooth="yes"/>
      <point x="399" y="1"/>
      <point x="411" y="12"/>
      <point x="411" y="26" type="curve" smooth="yes"/>
      <point x="411" y="32"/>
      <point x="409" y="38"/>
      <point x="404" y="43" type="curve" smooth="yes"/>
      <point x="384" y="65"/>
      <point x="374" y="93"/>
      <point x="374" y="139" type="curve" smooth="yes"/>
      <point x="374" y="230" type="line" smooth="yes"/>
      <point x="374" y="326"/>
      <point x="324" y="392"/>
      <point x="215" y="392" type="curve" smooth="yes"/>
      <point x="179" y="392"/>
      <point x="137" y="382"/>
      <point x="114" y="375" type="curve" smooth="yes"/>
      <point x="103" y="371"/>
      <point x="97" y="361"/>
      <point x="97" y="350" type="curve" smooth="yes"/>
      <point x="97" y="338"/>
      <point x="110" y="326"/>
      <point x="123" y="326" type="curve" smooth="yes"/>
      <point x="126" y="326"/>
      <point x="134" y="328"/>
      <point x="142" y="331" type="curve" smooth="yes"/>
      <point x="157" y="336"/>
      <point x="188" y="342"/>
      <point x="215" y="342" type="curve" smooth="yes"/>
      <point x="284" y="342"/>
      <point x="318" y="304"/>
      <point x="323" y="244" type="curve"/>
      <point x="299" y="246"/>
      <point x="277" y="247"/>
      <point x="255" y="247" type="curve" smooth="yes"/>
      <point x="173" y="247"/>
      <point x="119" y="225"/>
      <point x="85" y="192" type="curve" smooth="yes"/>
      <point x="59" y="167"/>
      <point x="50" y="138"/>
      <point x="50" y="106" type="curve" smooth="yes"/>
      <point x="50" y="61"/>
      <point x="79" y="0"/>
      <point x="172" y="0" type="curve" smooth="yes"/>
      <point x="237" y="0"/>
      <point x="289" y="21"/>
      <point x="334" y="65" type="curve"/>
      <point x="342" y="42"/>
      <point x="353" y="25"/>
    </contour>
  </outline>
</glyph>
<glyph name="oslash" format="1">
  <advance width="500"/>
  <unicode hex="00F8"/>
  <outline>
    <contour>
      <point x="250" y="-4" type="curve" smooth="yes"/>
      <point x="372" y="-4"/>
      <point x="449" y="81"/>
      <point x="449" y="191" type="curve" smooth="yes"/>
      <point x="449" y="240"/>
      <point x="435" y="285"/>
      <point x="408" y="320" type="curve"/>
      <point x="437" y="349" type="line" smooth="yes"/>
      <point x="442" y="354"/>
      <point x="444" y="361"/>
      <point x="444" y="367" type="curve" smooth="yes"/>
      <point x="444" y="381"/>
      <point x="434" y="392"/>
      <point x="419" y="392" type="curve" smooth="yes"/>
      <point x="413" y="392"/>
      <point x="406" y="390"/>
      <point x="401" y="385" type="curve" smooth="yes"/>
      <point x="373" y="357" type="line"/>
      <point x="340" y="381"/>
      <point x="299" y="396"/>
      <point x="250" y="396" type="curve" smooth="yes"/>
      <point x="127" y="396"/>
      <point x="51" y="304"/>
      <point x="51" y="193" type="curve" smooth="yes"/>
      <point x="51" y="147"/>
      <point x="64" y="105"/>
      <point x="89" y="72" type="curve"/>
      <point x="60" y="43" type="line" smooth="yes"/>
      <point x="55" y="38"/>
      <point x="53" y="32"/>
      <point x="53" y="25" type="curve" smooth="yes"/>
      <point x="53" y="12"/>
      <point x="65" y="0"/>
      <point x="78" y="0" type="curve" smooth="yes"/>
      <point x="85" y="0"/>
      <point x="91" y="2"/>
      <point x="96" y="7" type="curve" smooth="yes"/>
      <point x="125" y="36" type="line"/>
      <point x="157" y="11"/>
      <point x="200" y="-4"/>
    </contour>
    <contour>
      <point x="101" y="193" type="curve" smooth="yes"/>
      <point x="101" y="276"/>
      <point x="157" y="346"/>
      <point x="250" y="346" type="curve" smooth="yes"/>
      <point x="284" y="346"/>
      <point x="313" y="336"/>
      <point x="336" y="320" type="curve"/>
      <point x="125" y="108" type="line"/>
      <point x="110" y="132"/>
      <point x="101" y="161"/>
    </contour>
    <contour>
      <point x="250" y="46" type="curve" smooth="yes"/>
      <point x="215" y="46"/>
      <point x="185" y="56"/>
      <point x="161" y="72" type="curve"/>
      <point x="372" y="284" type="line"/>
      <point x="390" y="258"/>
      <point x="399" y="226"/>
      <point x="399" y="191" type="curve" smooth="yes"/>
      <point x="399" y="109"/>
      <point x="340" y="46"/>
    </contour>
  </outline>
</glyph>
<glyph name="ugrave" format="1">
  <advance width="497"/>
  <unicode hex="00F9"/>
  <outline>
    <contour>
      <point x="182" y="611" type="curve" smooth="yes"/>
      <point x="178" y="617"/>
      <point x="171" y="620"/>
      <point x="165" y="620" type="curve" smooth="yes"/>
      <point x="153" y="620"/>
      <point x="143" y="608"/>
      <point x="143" y="598" type="curve" smooth="yes"/>
      <point x="143" y="593"/>
      <point x="145" y="589"/>
      <point x="148" y="585" type="curve" smooth="yes"/>
      <point x="174" y="550"/>
      <point x="191" y="529"/>
      <point x="215" y="491" type="curve" smooth="yes"/>
      <point x="220" y="484"/>
      <point x="227" y="481"/>
      <point x="235" y="481" type="curve" smooth="yes"/>
      <point x="247" y="481"/>
      <point x="256" y="493"/>
      <point x="256" y="504" type="curve" smooth="yes"/>
      <point x="256" y="508"/>
      <point x="255" y="512"/>
      <point x="253" y="515" type="curve" smooth="yes"/>
      <point x="227" y="555"/>
      <point x="210" y="576"/>
    </contour>
    <contour>
      <point x="387" y="0" type="curve" smooth="yes"/>
      <point x="401" y="0"/>
      <point x="412" y="11"/>
      <point x="412" y="25" type="curve" smooth="yes"/>
      <point x="412" y="367" type="line" smooth="yes"/>
      <point x="412" y="381"/>
      <point x="401" y="392"/>
      <point x="387" y="392" type="curve" smooth="yes"/>
      <point x="374" y="392"/>
      <point x="362" y="381"/>
      <point x="362" y="367" type="curve" smooth="yes"/>
      <point x="362" y="146" type="line"/>
      <point x="325" y="95"/>
      <point x="267" y="50"/>
      <point x="212" y="50" type="curve" smooth="yes"/>
      <point x="159" y="50"/>
      <point x="125" y="85"/>
      <point x="125" y="167" type="curve" smooth="yes"/>
      <point x="125" y="367" type="line" smooth="yes"/>
      <point x="125" y="381"/>
      <point x="114" y="392"/>
      <point x="100" y="392" type="curve" smooth="yes"/>
      <point x="87" y="392"/>
      <point x="75" y="381"/>
      <point x="75" y="367" type="curve" smooth="yes"/>
      <point x="75" y="167" type="line" smooth="yes"/>
      <point x="75" y="39"/>
      <point x="137" y="0"/>
      <point x="212" y="0" type="curve" smooth="yes"/>
      <point x="264" y="0"/>
      <point x="318" y="29"/>
      <point x="362" y="70" type="curve"/>
      <point x="362" y="25" type="line" smooth="yes"/>
      <point x="362" y="12"/>
      <point x="374" y="0"/>
    </contour>
  </outline>
</glyph>
<glyph name="tcaron" format="1">
  <advance width="354"/>
  <unicode hex="0165"/>
  <outline>
    <contour>
      <point x="319" y="592" type="line" smooth="yes"/>
      <point x="322" y="608"/>
      <point x="325" y="626"/>
      <point x="325" y="630" type="curve" smooth="yes"/>
      <point x="325" y="641"/>
      <point x="317" y="655"/>
      <point x="300" y="655" type="curve" smooth="yes"/>
      <point x="287" y="655"/>
      <point x="277" y="647"/>
      <point x="275" y="634" type="curve" smooth="yes"/>
      <point x="257" y="531" type="line" smooth="yes"/>
      <point x="254" y="515"/>
      <point x="253" y="506"/>
      <point x="253" y="502" type="curve" smooth="yes"/>
      <point x="253" y="490"/>
      <point x="264" y="478"/>
      <point x="278" y="478" type="curve" smooth="yes"/>
      <point x="289" y="478"/>
      <point x="301" y="486"/>
      <point x="303" y="499" type="curve" smooth="yes"/>
    </contour>
    <contour>
      <point x="279" y="0" type="curve" smooth="yes"/>
      <point x="292" y="0"/>
      <point x="304" y="11"/>
      <point x="304" y="25" type="curve" smooth="yes"/>
      <point x="304" y="38"/>
      <point x="293" y="50"/>
      <point x="279" y="50" type="curve" smooth="yes"/>
      <point x="200" y="52"/>
      <point x="159" y="81"/>
      <point x="159" y="142" type="curve" smooth="yes"/>
      <point x="159" y="342" type="line"/>
      <point x="292" y="342" type="line" smooth="yes"/>
      <point x="306" y="342"/>
      <point x="317" y="354"/>
      <point x="317" y="367" type="curve" smooth="yes"/>
      <point x="317" y="381"/>
      <point x="306" y="392"/>
      <point x="292" y="392" type="curve" smooth="yes"/>
      <point x="159" y="392" type="line"/>
      <point x="159" y="493" type="line" smooth="yes"/>
      <point x="159" y="507"/>
      <point x="148" y="518"/>
      <point x="134" y="518" type="curve" smooth="yes"/>
      <point x="121" y="518"/>
      <point x="109" y="507"/>
      <point x="109" y="493" type="curve" smooth="yes"/>
      <point x="109" y="392" type="line"/>
      <point x="46" y="392" type="line" smooth="yes"/>
      <point x="33" y="392"/>
      <point x="21" y="381"/>
      <point x="21" y="367" type="curve" smooth="yes"/>
      <point x="21" y="354"/>
      <point x="33" y="342"/>
      <point x="46" y="342" type="curve" smooth="yes"/>
      <point x="109" y="342" type="line"/>
      <point x="109" y="142" type="line" smooth="yes"/>
      <point x="109" y="55"/>
      <point x="156" y="2"/>
    </contour>
  </outline>
</glyph>
<glyph name="knAI" format="1">
  <advance width="742"/>
  <unicode hex="0C90"/>
  <outline>
    <contour>
      <point x="514" y="0" type="curve" smooth="yes"/>
      <point x="598" y="0"/>
      <point x="675" y="49"/>
      <point x="675" y="222" type="curve" smooth="yes"/>
      <point x="675" y="403"/>
      <point x="583" y="456"/>
      <point x="506" y="456" type="curve" smooth="yes"/>
      <point x="454" y="456"/>
      <point x="412" y="433"/>
      <point x="367" y="369" type="curve"/>
      <point x="323" y="432"/>
      <point x="283" y="457"/>
      <point x="225" y="457" type="curve" smooth="yes"/>
      <point x="160" y="457"/>
      <point x="111" y="416"/>
      <point x="90" y="356" type="curve" smooth="yes"/>
      <point x="84" y="339"/>
      <point x="83" y="335"/>
      <point x="83" y="332" type="curve" smooth="yes"/>
      <point x="83" y="320"/>
      <point x="93" y="309"/>
      <point x="106" y="309" type="curve" smooth="yes"/>
      <point x="116" y="309"/>
      <point x="125" y="316"/>
      <point x="128" y="326" type="curve" smooth="yes"/>
      <point x="143" y="379"/>
      <point x="178" y="411"/>
      <point x="225" y="411" type="curve" smooth="yes"/>
      <point x="276" y="411"/>
      <point x="307" y="381"/>
      <point x="344" y="318" type="curve" smooth="yes"/>
      <point x="348" y="312"/>
      <point x="357" y="307"/>
      <point x="364" y="307" type="curve" smooth="yes"/>
      <point x="369" y="307" type="line" smooth="yes"/>
      <point x="376" y="307"/>
      <point x="385" y="312"/>
      <point x="389" y="318" type="curve" smooth="yes"/>
      <point x="428" y="381"/>
      <point x="459" y="410"/>
      <point x="506" y="410" type="curve" smooth="yes"/>
      <point x="567" y="410"/>
      <point x="629" y="353"/>
      <point x="629" y="222" type="curve" smooth="yes"/>
      <point x="629" y="99"/>
      <point x="580" y="46"/>
      <point x="514" y="46" type="curve" smooth="yes"/>
      <point x="460" y="46"/>
      <point x="421" y="74"/>
      <point x="386" y="136" type="curve" smooth="yes"/>
      <point x="382" y="142"/>
      <point x="373" y="147"/>
      <point x="366" y="147" type="curve" smooth="yes"/>
      <point x="361" y="147" type="line" smooth="yes"/>
      <point x="353" y="147"/>
      <point x="345" y="142"/>
      <point x="341" y="135" type="curve" smooth="yes"/>
      <point x="310" y="75"/>
      <point x="271" y="46"/>
      <point x="204" y="46" type="curve" smooth="yes"/>
      <point x="152" y="46"/>
      <point x="116" y="76"/>
      <point x="116" y="118" type="curve" smooth="yes"/>
      <point x="116" y="156"/>
      <point x="145" y="186"/>
      <point x="192" y="193" type="curve" smooth="yes"/>
      <point x="204" y="195"/>
      <point x="212" y="205"/>
      <point x="212" y="216" type="curve" smooth="yes"/>
      <point x="212" y="227"/>
      <point x="204" y="238"/>
      <point x="191" y="238" type="curve" smooth="yes"/>
      <point x="131" y="238"/>
      <point x="70" y="191"/>
      <point x="70" y="118" type="curve" smooth="yes"/>
      <point x="70" y="54"/>
      <point x="120" y="0"/>
      <point x="204" y="0" type="curve" smooth="yes"/>
      <point x="278" y="0"/>
      <point x="325" y="26"/>
      <point x="364" y="84" type="curve"/>
      <point x="406" y="25"/>
      <point x="453" y="0"/>
    </contour>
  </outline>
</glyph>
<glyph name="knTTHA" format="1">
  <advance width="684"/>
  <unicode hex="0CA0"/>
  <outline>
    <contour>
      <point x="347" y="-10" type="curve" smooth="yes"/>
      <point x="501" y="-10"/>
      <point x="593" y="94"/>
      <point x="593" y="220" type="curve" smooth="yes"/>
      <point x="593" y="292"/>
      <point x="556" y="365"/>
      <point x="493" y="411" type="curve"/>
      <point x="564" y="415"/>
      <point x="606" y="445"/>
      <point x="640" y="499" type="curve" smooth="yes"/>
      <point x="642" y="503"/>
      <point x="643" y="507"/>
      <point x="643" y="511" type="curve" smooth="yes"/>
      <point x="643" y="524"/>
      <point x="634" y="534"/>
      <point x="620" y="534" type="curve" smooth="yes"/>
      <point x="612" y="534"/>
      <point x="605" y="530"/>
      <point x="600" y="523" type="curve" smooth="yes"/>
      <point x="572" y="478"/>
      <point x="536" y="456"/>
      <point x="473" y="456" type="curve" smooth="yes"/>
      <point x="103" y="456" type="line" smooth="yes"/>
      <point x="91" y="456"/>
      <point x="80" y="445"/>
      <point x="80" y="433" type="curve" smooth="yes"/>
      <point x="80" y="421"/>
      <point x="91" y="410"/>
      <point x="103" y="410" type="curve" smooth="yes"/>
      <point x="202" y="410" type="line"/>
      <point x="138" y="365"/>
      <point x="100" y="293"/>
      <point x="100" y="220" type="curve" smooth="yes"/>
      <point x="100" y="92"/>
      <point x="195" y="-10"/>
    </contour>
    <contour>
      <point x="146" y="220" type="curve" smooth="yes"/>
      <point x="146" y="317"/>
      <point x="230" y="410"/>
      <point x="348" y="410" type="curve" smooth="yes"/>
      <point x="468" y="410"/>
      <point x="547" y="315"/>
      <point x="547" y="220" type="curve" smooth="yes"/>
      <point x="547" y="118"/>
      <point x="471" y="36"/>
      <point x="347" y="36" type="curve" smooth="yes"/>
      <point x="225" y="36"/>
      <point x="146" y="116"/>
    </contour>
    <contour>
      <point x="345" y="279" type="curve" smooth="yes"/>
      <point x="317" y="279"/>
      <point x="294" y="251"/>
      <point x="294" y="229" type="curve" smooth="yes"/>
      <point x="294" y="200"/>
      <point x="318" y="177"/>
      <point x="345" y="177" type="curve" smooth="yes"/>
      <point x="376" y="177"/>
      <point x="397" y="201"/>
      <point x="397" y="228" type="curve" smooth="yes"/>
      <point x="397" y="251"/>
      <point x="376" y="279"/>
    </contour>
  </outline>
</glyph>
<glyph name="knNNA" format="1">
  <advance width="779"/>
  <unicode hex="0CA3"/>
  <outline>
    <contour>
      <point x="552" y="-5" type="curve" smooth="yes"/>
      <point x="641" y="-5"/>
      <point x="708" y="40"/>
      <point x="708" y="226" type="curve" smooth="yes"/>
      <point x="708" y="400"/>
      <point x="635" y="464"/>
      <point x="544" y="464" type="curve" smooth="yes"/>
      <point x="482" y="464"/>
      <point x="430" y="430"/>
      <point x="391" y="372" type="curve"/>
      <point x="353" y="430"/>
      <point x="301" y="464"/>
      <point x="230" y="464" type="curve" smooth="yes"/>
      <point x="140" y="464"/>
      <point x="91" y="402"/>
      <point x="91" y="336" type="curve" smooth="yes"/>
      <point x="91" y="294"/>
      <point x="112" y="254"/>
      <point x="149" y="229" type="curve"/>
      <point x="108" y="208"/>
      <point x="79" y="170"/>
      <point x="79" y="124" type="curve" smooth="yes"/>
      <point x="79" y="51"/>
      <point x="132" y="1"/>
      <point x="230" y="1" type="curve" smooth="yes"/>
      <point x="262" y="1"/>
      <point x="287" y="5"/>
      <point x="306" y="11" type="curve" smooth="yes"/>
      <point x="316" y="14"/>
      <point x="323" y="23"/>
      <point x="323" y="33" type="curve" smooth="yes"/>
      <point x="323" y="45"/>
      <point x="313" y="56"/>
      <point x="300" y="56" type="curve" smooth="yes"/>
      <point x="296" y="56"/>
      <point x="288" y="54"/>
      <point x="279" y="52" type="curve" smooth="yes"/>
      <point x="266" y="49"/>
      <point x="246" y="47"/>
      <point x="230" y="47" type="curve" smooth="yes"/>
      <point x="168" y="47"/>
      <point x="125" y="73"/>
      <point x="125" y="124" type="curve" smooth="yes"/>
      <point x="125" y="174"/>
      <point x="178" y="202"/>
      <point x="227" y="202" type="curve" smooth="yes"/>
      <point x="256" y="202" type="line" smooth="yes"/>
      <point x="268" y="202"/>
      <point x="279" y="213"/>
      <point x="279" y="225" type="curve" smooth="yes"/>
      <point x="279" y="237"/>
      <point x="268" y="248"/>
      <point x="256" y="248" type="curve" smooth="yes"/>
      <point x="246" y="248" type="line" smooth="yes"/>
      <point x="182" y="248"/>
      <point x="137" y="287"/>
      <point x="137" y="336" type="curve" smooth="yes"/>
      <point x="137" y="380"/>
      <point x="172" y="418"/>
      <point x="230" y="418" type="curve" smooth="yes"/>
      <point x="295" y="418"/>
      <point x="339" y="379"/>
      <point x="367" y="320" type="curve" smooth="yes"/>
      <point x="371" y="313"/>
      <point x="380" y="307"/>
      <point x="388" y="307" type="curve" smooth="yes"/>
      <point x="392" y="307" type="line" smooth="yes"/>
      <point x="400" y="307"/>
      <point x="408" y="312"/>
      <point x="412" y="319" type="curve" smooth="yes"/>
      <point x="443" y="378"/>
      <point x="488" y="418"/>
      <point x="544" y="418" type="curve" smooth="yes"/>
      <point x="617" y="418"/>
      <point x="662" y="352"/>
      <point x="662" y="226" type="curve" smooth="yes"/>
      <point x="662" y="211"/>
      <point x="662" y="198"/>
      <point x="661" y="185" type="curve"/>
      <point x="633" y="207"/>
      <point x="600" y="222"/>
      <point x="557" y="222" type="curve" smooth="yes"/>
      <point x="478" y="222"/>
      <point x="435" y="165"/>
      <point x="435" y="107" type="curve" smooth="yes"/>
      <point x="435" y="42"/>
      <point x="487" y="-5"/>
    </contour>
    <contour>
      <point x="552" y="41" type="curve" smooth="yes"/>
      <point x="513" y="41"/>
      <point x="481" y="68"/>
      <point x="481" y="107" type="curve" smooth="yes"/>
      <point x="481" y="143"/>
      <point x="510" y="176"/>
      <point x="557" y="176" type="curve" smooth="yes"/>
      <point x="600" y="176"/>
      <point x="628" y="156"/>
      <point x="652" y="130" type="curve"/>
      <point x="636" y="68"/>
      <point x="602" y="41"/>
    </contour>
  </outline>
</glyph>
<glyph name="knTA" format="1">
  <advance width="658"/>
  <unicode hex="0CA4"/>
  <outline>
    <contour>
      <point x="312" y="193" type="curve" smooth="yes"/>
      <point x="264" y="193"/>
      <point x="233" y="212"/>
      <point x="233" y="241" type="curve" smooth="yes"/>
      <point x="233" y="272"/>
      <point x="277" y="293"/>
      <point x="337" y="293" type="curve" smooth="yes"/>
      <point x="371" y="293"/>
      <point x="402" y="289"/>
      <point x="428" y="282" type="curve"/>
      <point x="424" y="233"/>
      <point x="381" y="193"/>
    </contour>
    <contour>
      <point x="342" y="-9" type="curve" smooth="yes"/>
      <point x="506" y="-9"/>
      <point x="585" y="71"/>
      <point x="585" y="163" type="curve" smooth="yes"/>
      <point x="585" y="224"/>
      <point x="551" y="284"/>
      <point x="473" y="316" type="curve"/>
      <point x="471" y="346"/>
      <point x="466" y="378"/>
      <point x="455" y="410" type="curve"/>
      <point x="528" y="414"/>
      <point x="572" y="444"/>
      <point x="606" y="499" type="curve" smooth="yes"/>
      <point x="608" y="503"/>
      <point x="609" y="507"/>
      <point x="609" y="511" type="curve" smooth="yes"/>
      <point x="609" y="524"/>
      <point x="600" y="534"/>
      <point x="586" y="534" type="curve" smooth="yes"/>
      <point x="578" y="534"/>
      <point x="571" y="530"/>
      <point x="566" y="523" type="curve" smooth="yes"/>
      <point x="538" y="478"/>
      <point x="501" y="456"/>
      <point x="438" y="456" type="curve" smooth="yes"/>
      <point x="100" y="456" type="line" smooth="yes"/>
      <point x="88" y="456"/>
      <point x="77" y="445"/>
      <point x="77" y="433" type="curve" smooth="yes"/>
      <point x="77" y="421"/>
      <point x="88" y="410"/>
      <point x="100" y="410" type="curve" smooth="yes"/>
      <point x="406" y="410" type="line"/>
      <point x="418" y="383"/>
      <point x="423" y="356"/>
      <point x="426" y="330" type="curve"/>
      <point x="400" y="336"/>
      <point x="370" y="339"/>
      <point x="337" y="339" type="curve" smooth="yes"/>
      <point x="225" y="339"/>
      <point x="187" y="286"/>
      <point x="187" y="241" type="curve" smooth="yes"/>
      <point x="187" y="196"/>
      <point x="218" y="147"/>
      <point x="313" y="147" type="curve" smooth="yes"/>
      <point x="405" y="147"/>
      <point x="460" y="202"/>
      <point x="472" y="264" type="curve"/>
      <point x="515" y="241"/>
      <point x="539" y="205"/>
      <point x="539" y="163" type="curve" smooth="yes"/>
      <point x="539" y="89"/>
      <point x="462" y="37"/>
      <point x="342" y="37" type="curve" smooth="yes"/>
      <point x="256" y="37"/>
      <point x="183" y="55"/>
      <point x="136" y="78" type="curve" smooth="yes"/>
      <point x="133" y="80"/>
      <point x="129" y="81"/>
      <point x="125" y="81" type="curve" smooth="yes"/>
      <point x="113" y="81"/>
      <point x="103" y="70"/>
      <point x="103" y="57" type="curve" smooth="yes"/>
      <point x="103" y="49"/>
      <point x="108" y="42"/>
      <point x="116" y="38" type="curve" smooth="yes"/>
      <point x="167" y="12"/>
      <point x="248" y="-9"/>
    </contour>
  </outline>
</glyph>
<glyph name="knDA" format="1">
  <advance width="751"/>
  <unicode hex="0CA6"/>
  <outline>
    <contour>
      <point x="519" y="0" type="curve" smooth="yes"/>
      <point x="602" y="0"/>
      <point x="668" y="59"/>
      <point x="668" y="168" type="curve" smooth="yes"/>
      <point x="668" y="254"/>
      <point x="608" y="346"/>
      <point x="514" y="410" type="curve"/>
      <point x="597" y="410"/>
      <point x="645" y="440"/>
      <point x="682" y="499" type="curve" smooth="yes"/>
      <point x="684" y="503"/>
      <point x="685" y="507"/>
      <point x="685" y="511" type="curve" smooth="yes"/>
      <point x="685" y="524"/>
      <point x="676" y="534"/>
      <point x="662" y="534" type="curve" smooth="yes"/>
      <point x="654" y="534"/>
      <point x="647" y="530"/>
      <point x="642" y="523" type="curve" smooth="yes"/>
      <point x="614" y="478"/>
      <point x="577" y="456"/>
      <point x="514" y="456" type="curve" smooth="yes"/>
      <point x="111" y="456" type="line" smooth="yes"/>
      <point x="99" y="456"/>
      <point x="88" y="445"/>
      <point x="88" y="433" type="curve" smooth="yes"/>
      <point x="88" y="421"/>
      <point x="99" y="410"/>
      <point x="111" y="410" type="curve" smooth="yes"/>
      <point x="231" y="410" type="line"/>
      <point x="141" y="346"/>
      <point x="83" y="254"/>
      <point x="83" y="168" type="curve" smooth="yes"/>
      <point x="83" y="59"/>
      <point x="146" y="0"/>
      <point x="231" y="0" type="curve" smooth="yes"/>
      <point x="294" y="0"/>
      <point x="337" y="27"/>
      <point x="373" y="83" type="curve"/>
      <point x="410" y="25"/>
      <point x="452" y="0"/>
    </contour>
    <contour>
      <point x="519" y="46" type="curve" smooth="yes"/>
      <point x="459" y="46"/>
      <point x="427" y="75"/>
      <point x="395" y="135" type="curve" smooth="yes"/>
      <point x="391" y="142"/>
      <point x="383" y="147"/>
      <point x="375" y="147" type="curve" smooth="yes"/>
      <point x="370" y="147" type="line" smooth="yes"/>
      <point x="362" y="147"/>
      <point x="353" y="141"/>
      <point x="350" y="135" type="curve" smooth="yes"/>
      <point x="320" y="77"/>
      <point x="287" y="46"/>
      <point x="231" y="46" type="curve" smooth="yes"/>
      <point x="170" y="46"/>
      <point x="129" y="93"/>
      <point x="129" y="168" type="curve" smooth="yes"/>
      <point x="129" y="262"/>
      <point x="211" y="358"/>
      <point x="323" y="410" type="curve"/>
      <point x="421" y="410" type="line"/>
      <point x="536" y="358"/>
      <point x="622" y="261"/>
      <point x="622" y="168" type="curve" smooth="yes"/>
      <point x="622" y="93"/>
      <point x="580" y="46"/>
    </contour>
  </outline>
</glyph>
<glyph name="knBA" format="1">
  <advance width="753"/>
  <unicode hex="0CAC"/>
  <outline>
    <contour>
      <point x="536" y="0" type="curve" smooth="yes"/>
      <point x="614" y="0"/>
      <point x="683" y="58"/>
      <point x="683" y="175" type="curve" smooth="yes"/>
      <point x="683" y="282"/>
      <point x="629" y="383"/>
      <point x="538" y="451" type="curve" smooth="yes"/>
      <point x="534" y="454"/>
      <point x="529" y="456"/>
      <point x="524" y="456" type="curve" smooth="yes"/>
      <point x="511" y="456"/>
      <point x="501" y="445"/>
      <point x="501" y="433" type="curve" smooth="yes"/>
      <point x="501" y="426"/>
      <point x="504" y="419"/>
      <point x="510" y="415" type="curve" smooth="yes"/>
      <point x="589" y="355"/>
      <point x="637" y="268"/>
      <point x="637" y="175" type="curve" smooth="yes"/>
      <point x="637" y="94"/>
      <point x="594" y="46"/>
      <point x="536" y="46" type="curve" smooth="yes"/>
      <point x="478" y="46"/>
      <point x="438" y="76"/>
      <point x="404" y="135" type="curve" smooth="yes"/>
      <point x="400" y="142"/>
      <point x="391" y="147"/>
      <point x="384" y="147" type="curve" smooth="yes"/>
      <point x="379" y="147" type="line" smooth="yes"/>
      <point x="372" y="147"/>
      <point x="363" y="142"/>
      <point x="359" y="136" type="curve" smooth="yes"/>
      <point x="323" y="77"/>
      <point x="281" y="46"/>
      <point x="222" y="46" type="curve" smooth="yes"/>
      <point x="165" y="46"/>
      <point x="133" y="81"/>
      <point x="133" y="125" type="curve" smooth="yes"/>
      <point x="133" y="167"/>
      <point x="162" y="202"/>
      <point x="203" y="235" type="curve" smooth="yes"/>
      <point x="269" y="288"/>
      <point x="291" y="327"/>
      <point x="291" y="371" type="curve" smooth="yes"/>
      <point x="291" y="426"/>
      <point x="251" y="471"/>
      <point x="183" y="471" type="curve" smooth="yes"/>
      <point x="140" y="471"/>
      <point x="105" y="451"/>
      <point x="75" y="417" type="curve" smooth="yes"/>
      <point x="71" y="413"/>
      <point x="69" y="407"/>
      <point x="69" y="402" type="curve" smooth="yes"/>
      <point x="69" y="389"/>
      <point x="80" y="379"/>
      <point x="92" y="379" type="curve" smooth="yes"/>
      <point x="99" y="379"/>
      <point x="105" y="382"/>
      <point x="109" y="387" type="curve" smooth="yes"/>
      <point x="129" y="409"/>
      <point x="154" y="425"/>
      <point x="183" y="425" type="curve" smooth="yes"/>
      <point x="219" y="425"/>
      <point x="245" y="402"/>
      <point x="245" y="371" type="curve" smooth="yes"/>
      <point x="245" y="337"/>
      <point x="223" y="310"/>
      <point x="175" y="271" type="curve" smooth="yes"/>
      <point x="120" y="226"/>
      <point x="87" y="179"/>
      <point x="87" y="125" type="curve" smooth="yes"/>
      <point x="87" y="59"/>
      <point x="133" y="0"/>
      <point x="222" y="0" type="curve" smooth="yes"/>
      <point x="288" y="0"/>
      <point x="338" y="27"/>
      <point x="381" y="86" type="curve"/>
      <point x="422" y="27"/>
      <point x="471" y="0"/>
    </contour>
  </outline>
</glyph>
<glyph name="knRA" format="1">
  <advance width="663"/>
  <unicode hex="0CB0"/>
  <outline>
    <contour>
      <point x="337" y="-4" type="curve" smooth="yes"/>
      <point x="483" y="-4"/>
      <point x="572" y="96"/>
      <point x="572" y="223" type="curve" smooth="yes"/>
      <point x="572" y="297"/>
      <point x="537" y="367"/>
      <point x="479" y="410" type="curve"/>
      <point x="552" y="414"/>
      <point x="596" y="444"/>
      <point x="630" y="499" type="curve" smooth="yes"/>
      <point x="632" y="503"/>
      <point x="633" y="507"/>
      <point x="633" y="511" type="curve" smooth="yes"/>
      <point x="633" y="524"/>
      <point x="623" y="534"/>
      <point x="610" y="534" type="curve" smooth="yes"/>
      <point x="602" y="534"/>
      <point x="595" y="530"/>
      <point x="590" y="523" type="curve" smooth="yes"/>
      <point x="562" y="478"/>
      <point x="525" y="456"/>
      <point x="462" y="456" type="curve" smooth="yes"/>
      <point x="94" y="456" type="line" smooth="yes"/>
      <point x="82" y="456"/>
      <point x="71" y="445"/>
      <point x="71" y="433" type="curve" smooth="yes"/>
      <point x="71" y="421"/>
      <point x="82" y="410"/>
      <point x="94" y="410" type="curve" smooth="yes"/>
      <point x="197" y="410" type="line"/>
      <point x="138" y="367"/>
      <point x="100" y="297"/>
      <point x="100" y="223" type="curve" smooth="yes"/>
      <point x="100" y="93"/>
      <point x="193" y="-4"/>
    </contour>
    <contour>
      <point x="146" y="223" type="curve" smooth="yes"/>
      <point x="146" y="322"/>
      <point x="230" y="410"/>
      <point x="339" y="410" type="curve" smooth="yes"/>
      <point x="450" y="410"/>
      <point x="526" y="320"/>
      <point x="526" y="223" type="curve" smooth="yes"/>
      <point x="526" y="120"/>
      <point x="453" y="42"/>
      <point x="337" y="42" type="curve" smooth="yes"/>
      <point x="223" y="42"/>
      <point x="146" y="119"/>
    </contour>
  </outline>
</glyph>
<glyph name="knLA" format="1">
  <advance width="717"/>
  <unicode hex="0CB2"/>
  <outline>
    <contour>
      <point x="224" y="299" type="curve" smooth="yes"/>
      <point x="191" y="299"/>
      <point x="159" y="317"/>
      <point x="132" y="341" type="curve"/>
      <point x="150" y="389"/>
      <point x="182" y="425"/>
      <point x="222" y="425" type="curve" smooth="yes"/>
      <point x="265" y="425"/>
      <point x="291" y="396"/>
      <point x="291" y="359" type="curve" smooth="yes"/>
      <point x="291" y="322"/>
      <point x="261" y="299"/>
    </contour>
    <contour>
      <point x="650" y="245" type="curve" smooth="yes"/>
      <point x="650" y="316"/>
      <point x="615" y="397"/>
      <point x="566" y="449" type="curve" smooth="yes"/>
      <point x="561" y="454"/>
      <point x="555" y="456"/>
      <point x="549" y="456" type="curve" smooth="yes"/>
      <point x="536" y="456"/>
      <point x="526" y="445"/>
      <point x="526" y="433" type="curve" smooth="yes"/>
      <point x="526" y="427"/>
      <point x="528" y="421"/>
      <point x="532" y="417" type="curve" smooth="yes"/>
      <point x="573" y="373"/>
      <point x="604" y="306"/>
      <point x="604" y="245" type="curve" smooth="yes"/>
      <point x="604" y="147"/>
      <point x="538" y="46"/>
      <point x="369" y="46" type="curve" smooth="yes"/>
      <point x="207" y="46"/>
      <point x="116" y="136"/>
      <point x="116" y="249" type="curve" smooth="yes"/>
      <point x="116" y="263"/>
      <point x="117" y="278"/>
      <point x="120" y="292" type="curve"/>
      <point x="151" y="268"/>
      <point x="187" y="253"/>
      <point x="224" y="253" type="curve" smooth="yes"/>
      <point x="289" y="253"/>
      <point x="337" y="296"/>
      <point x="337" y="359" type="curve" smooth="yes"/>
      <point x="337" y="420"/>
      <point x="295" y="471"/>
      <point x="222" y="471" type="curve" smooth="yes"/>
      <point x="142" y="471"/>
      <point x="70" y="370"/>
      <point x="70" y="249" type="curve" smooth="yes"/>
      <point x="70" y="116"/>
      <point x="171" y="0"/>
      <point x="369" y="0" type="curve" smooth="yes"/>
      <point x="576" y="0"/>
      <point x="650" y="127"/>
    </contour>
  </outline>
</glyph>
<glyph name="knLLLA" format="1">
  <advance width="767"/>
  <unicode hex="0CDE"/>
  <outline>
    <contour>
      <point x="547" y="292" type="curve" smooth="yes"/>
      <point x="512" y="292"/>
      <point x="482" y="314"/>
      <point x="482" y="351" type="curve" smooth="yes"/>
      <point x="482" y="387"/>
      <point x="507" y="412"/>
      <point x="547" y="412" type="curve" smooth="yes"/>
      <point x="582" y="412"/>
      <point x="612" y="383"/>
      <point x="632" y="339" type="curve"/>
      <point x="608" y="314"/>
      <point x="582" y="292"/>
    </contour>
    <contour>
      <point x="224" y="292" type="curve" smooth="yes"/>
      <point x="189" y="292"/>
      <point x="163" y="314"/>
      <point x="139" y="339" type="curve"/>
      <point x="159" y="383"/>
      <point x="189" y="412"/>
      <point x="224" y="412" type="curve" smooth="yes"/>
      <point x="264" y="412"/>
      <point x="289" y="387"/>
      <point x="289" y="351" type="curve" smooth="yes"/>
      <point x="289" y="314"/>
      <point x="259" y="292"/>
    </contour>
    <contour>
      <point x="700" y="225" type="curve" smooth="yes"/>
      <point x="700" y="370"/>
      <point x="624" y="458"/>
      <point x="547" y="458" type="curve" smooth="yes"/>
      <point x="477" y="458"/>
      <point x="436" y="413"/>
      <point x="436" y="351" type="curve" smooth="yes"/>
      <point x="436" y="288"/>
      <point x="486" y="246"/>
      <point x="547" y="246" type="curve" smooth="yes"/>
      <point x="585" y="246"/>
      <point x="619" y="264"/>
      <point x="647" y="291" type="curve"/>
      <point x="652" y="270"/>
      <point x="654" y="248"/>
      <point x="654" y="225" type="curve" smooth="yes"/>
      <point x="654" y="127"/>
      <point x="605" y="46"/>
      <point x="530" y="46" type="curve" smooth="yes"/>
      <point x="473" y="46"/>
      <point x="439" y="76"/>
      <point x="408" y="135" type="curve" smooth="yes"/>
      <point x="404" y="142"/>
      <point x="396" y="147"/>
      <point x="388" y="147" type="curve" smooth="yes"/>
      <point x="383" y="147" type="line" smooth="yes"/>
      <point x="375" y="147"/>
      <point x="367" y="142"/>
      <point x="363" y="135" type="curve" smooth="yes"/>
      <point x="332" y="76"/>
      <point x="298" y="46"/>
      <point x="241" y="46" type="curve" smooth="yes"/>
      <point x="166" y="46"/>
      <point x="117" y="127"/>
      <point x="117" y="225" type="curve" smooth="yes"/>
      <point x="117" y="248"/>
      <point x="119" y="270"/>
      <point x="124" y="291" type="curve"/>
      <point x="152" y="264"/>
      <point x="186" y="246"/>
      <point x="224" y="246" type="curve" smooth="yes"/>
      <point x="285" y="246"/>
      <point x="335" y="288"/>
      <point x="335" y="351" type="curve" smooth="yes"/>
      <point x="335" y="413"/>
      <point x="294" y="458"/>
      <point x="224" y="458" type="curve" smooth="yes"/>
      <point x="147" y="458"/>
      <point x="71" y="370"/>
      <point x="71" y="225" type="curve" smooth="yes"/>
      <point x="71" y="91"/>
      <point x="146" y="0"/>
      <point x="241" y="0" type="curve" smooth="yes"/>
      <point x="304" y="0"/>
      <point x="348" y="25"/>
      <point x="385" y="83" type="curve"/>
      <point x="423" y="25"/>
      <point x="467" y="0"/>
      <point x="530" y="0" type="curve" smooth="yes"/>
      <point x="625" y="0"/>
      <point x="700" y="91"/>
    </contour>
  </outline>
</glyph>
<glyph name="commaaccentcmb" format="1">
  <advance width="0"/>
  <outline>
    <contour>
      <point x="-68" y="-91" type="curve" smooth="yes"/>
      <point x="-71" y="-84"/>
      <point x="-79" y="-80"/>
      <point x="-87" y="-80" type="curve" smooth="yes"/>
      <point x="-100" y="-80"/>
      <point x="-109" y="-89"/>
      <point x="-109" y="-102" type="curve" smooth="yes"/>
      <point x="-109" y="-106"/>
      <point x="-108" y="-109"/>
      <point x="-106" y="-113" type="curve" smooth="yes"/>
      <point x="-102" y="-120"/>
      <point x="-100" y="-130"/>
      <point x="-100" y="-139" type="curve" smooth="yes"/>
      <point x="-100" y="-170"/>
      <point x="-127" y="-196"/>
      <point x="-164" y="-213" type="curve" smooth="yes"/>
      <point x="-172" y="-217"/>
      <point x="-177" y="-225"/>
      <point x="-177" y="-233" type="curve" smooth="yes"/>
      <point x="-177" y="-245"/>
      <point x="-166" y="-255"/>
      <point x="-155" y="-255" type="curve" smooth="yes"/>
      <point x="-152" y="-255"/>
      <point x="-149" y="-254"/>
      <point x="-146" y="-253" type="curve" smooth="yes"/>
      <point x="-89" y="-226"/>
      <point x="-56" y="-184"/>
      <point x="-56" y="-139" type="curve" smooth="yes"/>
      <point x="-56" y="-122"/>
      <point x="-60" y="-106"/>
    </contour>
  </outline>
</glyph>
<glyph name="dieresiscmb.cap" format="1">
  <advance width="0"/>
  <outline>
    <contour>
      <point x="90" y="730" type="curve" smooth="yes"/>
      <point x="70" y="730"/>
      <point x="51" y="712"/>
      <point x="51" y="682" type="curve" smooth="yes"/>
      <point x="51" y="650"/>
      <point x="70" y="634"/>
      <point x="90" y="634" type="curve" smooth="yes"/>
      <point x="108" y="634"/>
      <point x="128" y="649"/>
      <point x="128" y="682" type="curve" smooth="yes"/>
      <point x="128" y="713"/>
      <point x="108" y="730"/>
    </contour>
    <contour>
      <point x="-103" y="730" type="curve" smooth="yes"/>
      <point x="-123" y="730"/>
      <point x="-143" y="711"/>
      <point x="-143" y="682" type="curve" smooth="yes"/>
      <point x="-143" y="651"/>
      <point x="-123" y="634"/>
      <point x="-103" y="634" type="curve" smooth="yes"/>
      <point x="-85" y="634"/>
      <point x="-65" y="649"/>
      <point x="-65" y="682" type="curve" smooth="yes"/>
      <point x="-65" y="713"/>
      <point x="-85" y="730"/>
    </contour>
  </outline>
</glyph>
<glyph name="knAIlengthmark.following" format="1">
  <advance width="604"/>
  <outline>
    <contour>
      <point x="309" y="-238" type="curve" smooth="yes"/>
      <point x="286" y="-238"/>
      <point x="270" y="-233"/>
      <point x="251" y="-223" type="curve"/>
      <point x="251" y="-219" type="line" smooth="yes"/>
      <point x="251" y="-180"/>
      <point x="274" y="-144"/>
      <point x="311" y="-144" type="curve" smooth="yes"/>
      <point x="344" y="-144"/>
      <point x="360" y="-167"/>
      <point x="360" y="-189" type="curve" smooth="yes"/>
      <point x="360" y="-220"/>
      <point x="335" y="-238"/>
    </contour>
    <contour>
      <point x="549" y="-352" type="curve" smooth="yes"/>
      <point x="578" y="-323"/>
      <point x="594" y="-282"/>
      <point x="594" y="-237" type="curve" smooth="yes"/>
      <point x="594" y="-189"/>
      <point x="573" y="-146"/>
      <point x="546" y="-118" type="curve" smooth="yes"/>
      <point x="539" y="-111"/>
      <point x="532" y="-105"/>
      <point x="525" y="-99" type="curve"/>
      <point x="554" y="-81"/>
      <point x="569" y="-53"/>
      <point x="569" y="-17" type="curve" smooth="yes"/>
      <point x="569" y="9"/>
      <point x="558" y="35"/>
      <point x="540" y="57" type="curve" smooth="yes"/>
      <point x="536" y="62"/>
      <point x="530" y="65"/>
      <point x="524" y="65" type="curve" smooth="yes"/>
      <point x="513" y="65"/>
      <point x="503" y="55"/>
      <point x="503" y="44" type="curve" smooth="yes"/>
      <point x="503" y="39"/>
      <point x="505" y="35"/>
      <point x="508" y="31" type="curve" smooth="yes"/>
      <point x="520" y="17"/>
      <point x="527" y="-1"/>
      <point x="527" y="-17" type="curve" smooth="yes"/>
      <point x="527" y="-47"/>
      <point x="509" y="-66"/>
      <point x="477" y="-75" type="curve" smooth="yes"/>
      <point x="465" y="-78"/>
      <point x="458" y="-85"/>
      <point x="458" y="-95" type="curve" smooth="yes"/>
      <point x="458" y="-103"/>
      <point x="463" y="-111"/>
      <point x="470" y="-115" type="curve" smooth="yes"/>
      <point x="489" y="-124"/>
      <point x="501" y="-133"/>
      <point x="516" y="-148" type="curve" smooth="yes"/>
      <point x="537" y="-168"/>
      <point x="552" y="-201"/>
      <point x="552" y="-237" type="curve" smooth="yes"/>
      <point x="552" y="-270"/>
      <point x="540" y="-301"/>
      <point x="519" y="-322" type="curve" smooth="yes"/>
      <point x="495" y="-346"/>
      <point x="457" y="-361"/>
      <point x="412" y="-361" type="curve" smooth="yes"/>
      <point x="369" y="-361"/>
      <point x="323" y="-349"/>
      <point x="297" y="-322" type="curve" smooth="yes"/>
      <point x="281" y="-306"/>
      <point x="270" y="-291"/>
      <point x="262" y="-273" type="curve"/>
      <point x="276" y="-278"/>
      <point x="291" y="-280"/>
      <point x="309" y="-280" type="curve" smooth="yes"/>
      <point x="357" y="-280"/>
      <point x="402" y="-246"/>
      <point x="402" y="-189" type="curve" smooth="yes"/>
      <point x="402" y="-147"/>
      <point x="374" y="-102"/>
      <point x="311" y="-102" type="curve" smooth="yes"/>
      <point x="253" y="-102"/>
      <point x="209" y="-154"/>
      <point x="209" y="-219" type="curve" smooth="yes"/>
      <point x="209" y="-273"/>
      <point x="229" y="-314"/>
      <point x="267" y="-352" type="curve" smooth="yes"/>
      <point x="301" y="-385"/>
      <point x="357" y="-403"/>
      <point x="412" y="-403" type="curve" smooth="yes"/>
      <point x="469" y="-403"/>
      <point x="519" y="-382"/>
    </contour>
  </outline>
</glyph>
<glyph name="knB" format="1">
  <advance width="1010"/>
  <outline>
    <contour>
      <point x="536" y="0" type="curve" smooth="yes"/>
      <point x="615" y="0"/>
      <point x="680" y="59"/>
      <point x="680" y="168" type="curve" smooth="yes"/>
      <point x="680" y="253"/>
      <point x="635" y="342"/>
      <point x="563" y="410" type="curve"/>
      <point x="752" y="410" type="line"/>
      <point x="745" y="387"/>
      <point x="743" y="365"/>
      <point x="743" y="345" type="curve" smooth="yes"/>
      <point x="743" y="270"/>
      <point x="798" y="223"/>
      <point x="860" y="223" type="curve" smooth="yes"/>
      <point x="924" y="223"/>
      <point x="969" y="265"/>
      <point x="969" y="333" type="curve" smooth="yes"/>
      <point x="969" y="389"/>
      <point x="931" y="453"/>
      <point x="829" y="456" type="curve"/>
      <point x="850" y="482"/>
      <point x="881" y="508"/>
      <point x="925" y="532" type="curve" smooth="yes"/>
      <point x="933" y="536"/>
      <point x="937" y="544"/>
      <point x="937" y="552" type="curve" smooth="yes"/>
      <point x="937" y="566"/>
      <point x="925" y="575"/>
      <point x="914" y="575" type="curve" smooth="yes"/>
      <point x="910" y="575"/>
      <point x="906" y="574"/>
      <point x="903" y="572" type="curve" smooth="yes"/>
      <point x="836" y="536"/>
      <point x="796" y="495"/>
      <point x="772" y="456" type="curve"/>
      <point x="439" y="456" type="line" smooth="yes"/>
      <point x="427" y="456"/>
      <point x="416" y="445"/>
      <point x="416" y="433" type="curve" smooth="yes"/>
      <point x="416" y="421"/>
      <point x="427" y="410"/>
      <point x="439" y="410" type="curve" smooth="yes"/>
      <point x="491" y="410" type="line"/>
      <point x="576" y="351"/>
      <point x="634" y="256"/>
      <point x="634" y="168" type="curve" smooth="yes"/>
      <point x="634" y="93"/>
      <point x="593" y="46"/>
      <point x="536" y="46" type="curve" smooth="yes"/>
      <point x="478" y="46"/>
      <point x="438" y="76"/>
      <point x="404" y="135" type="curve" smooth="yes"/>
      <point x="400" y="142"/>
      <point x="391" y="147"/>
      <point x="384" y="147" type="curve" smooth="yes"/>
      <point x="379" y="147" type="line" smooth="yes"/>
      <point x="372" y="147"/>
      <point x="363" y="142"/>
      <point x="359" y="136" type="curve" smooth="yes"/>
      <point x="323" y="77"/>
      <point x="281" y="46"/>
      <point x="222" y="46" type="curve" smooth="yes"/>
      <point x="165" y="46"/>
      <point x="133" y="81"/>
      <point x="133" y="125" type="curve" smooth="yes"/>
      <point x="133" y="167"/>
      <point x="162" y="202"/>
      <point x="203" y="235" type="curve" smooth="yes"/>
      <point x="269" y="288"/>
      <point x="291" y="327"/>
      <point x="291" y="371" type="curve" smooth="yes"/>
      <point x="291" y="426"/>
      <point x="251" y="471"/>
      <point x="183" y="471" type="curve" smooth="yes"/>
      <point x="140" y="471"/>
      <point x="105" y="451"/>
      <point x="75" y="417" type="curve" smooth="yes"/>
      <point x="71" y="413"/>
      <point x="69" y="407"/>
      <point x="69" y="402" type="curve" smooth="yes"/>
      <point x="69" y="389"/>
      <point x="81" y="379"/>
      <point x="92" y="379" type="curve" smooth="yes"/>
      <point x="99" y="379"/>
      <point x="105" y="382"/>
      <point x="109" y="387" type="curve" smooth="yes"/>
      <point x="129" y="409"/>
      <point x="154" y="425"/>
      <point x="183" y="425" type="curve" smooth="yes"/>
      <point x="219" y="425"/>
      <point x="245" y="402"/>
      <point x="245" y="371" type="curve" smooth="yes"/>
      <point x="245" y="337"/>
      <point x="223" y="310"/>
      <point x="175" y="271" type="curve" smooth="yes"/>
      <point x="120" y="226"/>
      <point x="87" y="179"/>
      <point x="87" y="125" type="curve" smooth="yes"/>
      <point x="87" y="59"/>
      <point x="133" y="0"/>
      <point x="222" y="0" type="curve" smooth="yes"/>
      <point x="288" y="0"/>
      <point x="338" y="27"/>
      <point x="381" y="86" type="curve"/>
      <point x="422" y="27"/>
      <point x="471" y="0"/>
    </contour>
    <contour>
      <point x="860" y="269" type="curve" smooth="yes"/>
      <point x="822" y="269"/>
      <point x="789" y="300"/>
      <point x="789" y="345" type="curve" smooth="yes"/>
      <point x="789" y="365"/>
      <point x="792" y="387"/>
      <point x="802" y="410" type="curve"/>
      <point x="821" y="410" type="line" smooth="yes"/>
      <point x="889" y="410"/>
      <point x="923" y="372"/>
      <point x="923" y="333" type="curve" smooth="yes"/>
      <point x="923" y="293"/>
      <point x="898" y="269"/>
    </contour>
  </outline>
</glyph>
<glyph name="knCI" format="1">
  <advance width="805"/>
  <outline>
    <contour>
      <point x="550" y="469" type="curve" smooth="yes"/>
      <point x="516" y="469"/>
      <point x="488" y="492"/>
      <point x="488" y="526" type="curve" smooth="yes"/>
      <point x="488" y="560"/>
      <point x="515" y="588"/>
      <point x="556" y="588" type="curve" smooth="yes"/>
      <point x="597" y="588"/>
      <point x="629" y="559"/>
      <point x="644" y="521" type="curve"/>
      <point x="615" y="485"/>
      <point x="587" y="469"/>
    </contour>
    <contour>
      <point x="545" y="0" type="curve" smooth="yes"/>
      <point x="632" y="0"/>
      <point x="683" y="63"/>
      <point x="683" y="133" type="curve" smooth="yes"/>
      <point x="683" y="176"/>
      <point x="669" y="220"/>
      <point x="631" y="263" type="curve"/>
      <point x="715" y="263" type="line" smooth="yes"/>
      <point x="727" y="263"/>
      <point x="738" y="274"/>
      <point x="738" y="286" type="curve" smooth="yes"/>
      <point x="738" y="298"/>
      <point x="727" y="309"/>
      <point x="715" y="309" type="curve" smooth="yes"/>
      <point x="625" y="309" type="line"/>
      <point x="675" y="348"/>
      <point x="701" y="406"/>
      <point x="701" y="469" type="curve" smooth="yes"/>
      <point x="701" y="553"/>
      <point x="637" y="634"/>
      <point x="556" y="634" type="curve" smooth="yes"/>
      <point x="485" y="634"/>
      <point x="442" y="582"/>
      <point x="442" y="526" type="curve" smooth="yes"/>
      <point x="442" y="468"/>
      <point x="488" y="423"/>
      <point x="550" y="423" type="curve" smooth="yes"/>
      <point x="590" y="423"/>
      <point x="623" y="435"/>
      <point x="655" y="465" type="curve"/>
      <point x="653" y="385"/>
      <point x="594" y="318"/>
      <point x="493" y="309" type="curve"/>
      <point x="438" y="309" type="line" smooth="yes"/>
      <point x="426" y="309"/>
      <point x="415" y="298"/>
      <point x="415" y="286" type="curve" smooth="yes"/>
      <point x="415" y="274"/>
      <point x="426" y="263"/>
      <point x="438" y="263" type="curve" smooth="yes"/>
      <point x="565" y="263" type="line"/>
      <point x="615" y="223"/>
      <point x="637" y="177"/>
      <point x="637" y="133" type="curve" smooth="yes"/>
      <point x="637" y="87"/>
      <point x="602" y="46"/>
      <point x="545" y="46" type="curve" smooth="yes"/>
      <point x="480" y="46"/>
      <point x="439" y="79"/>
      <point x="403" y="136" type="curve" smooth="yes"/>
      <point x="399" y="142"/>
      <point x="391" y="147"/>
      <point x="384" y="147" type="curve" smooth="yes"/>
      <point x="379" y="147" type="line" smooth="yes"/>
      <point x="372" y="147"/>
      <point x="363" y="142"/>
      <point x="359" y="136" type="curve" smooth="yes"/>
      <point x="320" y="73"/>
      <point x="281" y="46"/>
      <point x="222" y="46" type="curve" smooth="yes"/>
      <point x="165" y="46"/>
      <point x="133" y="81"/>
      <point x="133" y="125" type="curve" smooth="yes"/>
      <point x="133" y="167"/>
      <point x="162" y="202"/>
      <point x="203" y="235" type="curve" smooth="yes"/>
      <point x="269" y="288"/>
      <point x="291" y="327"/>
      <point x="291" y="371" type="curve" smooth="yes"/>
      <point x="291" y="426"/>
      <point x="251" y="471"/>
      <point x="183" y="471" type="curve" smooth="yes"/>
      <point x="140" y="471"/>
      <point x="105" y="451"/>
      <point x="75" y="417" type="curve"/>
      <point x="71" y="413"/>
      <point x="69" y="407"/>
      <point x="69" y="402" type="curve" smooth="yes"/>
      <point x="69" y="389"/>
      <point x="79" y="379"/>
      <point x="92" y="379" type="curve" smooth="yes"/>
      <point x="99" y="379"/>
      <point x="105" y="382"/>
      <point x="109" y="387" type="curve" smooth="yes"/>
      <point x="129" y="409"/>
      <point x="154" y="425"/>
      <point x="183" y="425" type="curve" smooth="yes"/>
      <point x="219" y="425"/>
      <point x="245" y="402"/>
      <point x="245" y="371" type="curve" smooth="yes"/>
      <point x="245" y="337"/>
      <point x="223" y="310"/>
      <point x="175" y="271" type="curve" smooth="yes"/>
      <point x="120" y="226"/>
      <point x="87" y="179"/>
      <point x="87" y="125" type="curve" smooth="yes"/>
      <point x="87" y="59"/>
      <point x="133" y="0"/>
      <point x="222" y="0" type="curve" smooth="yes"/>
      <point x="289" y="0"/>
      <point x="337" y="25"/>
      <point x="382" y="87" type="curve"/>
      <point x="425" y="30"/>
      <point x="474" y="0"/>
    </contour>
  </outline>
</glyph>
<glyph name="knCUU" format="1">
  <advance width="1352"/>
  <outline>
    <contour>
      <point x="1152" y="-4" type="curve" smooth="yes"/>
      <point x="1225" y="-4"/>
      <point x="1285" y="55"/>
      <point x="1285" y="167" type="curve" smooth="yes"/>
      <point x="1285" y="354"/>
      <point x="1146" y="456"/>
      <point x="1036" y="456" type="curve" smooth="yes"/>
      <point x="927" y="456"/>
      <point x="871" y="366"/>
      <point x="871" y="288" type="curve" smooth="yes"/>
      <point x="871" y="228"/>
      <point x="896" y="178"/>
      <point x="896" y="125" type="curve" smooth="yes"/>
      <point x="896" y="78"/>
      <point x="871" y="46"/>
      <point x="818" y="46" type="curve" smooth="yes"/>
      <point x="770" y="46"/>
      <point x="727" y="77"/>
      <point x="683" y="146" type="curve"/>
      <point x="680" y="185"/>
      <point x="665" y="225"/>
      <point x="631" y="263" type="curve"/>
      <point x="715" y="263" type="line" smooth="yes"/>
      <point x="727" y="263"/>
      <point x="738" y="274"/>
      <point x="738" y="286" type="curve" smooth="yes"/>
      <point x="738" y="298"/>
      <point x="727" y="309"/>
      <point x="715" y="309" type="curve" smooth="yes"/>
      <point x="613" y="309" type="line"/>
      <point x="613" y="412" type="line"/>
      <point x="677" y="418"/>
      <point x="718" y="448"/>
      <point x="750" y="499" type="curve" smooth="yes"/>
      <point x="752" y="503"/>
      <point x="753" y="507"/>
      <point x="753" y="511" type="curve" smooth="yes"/>
      <point x="753" y="524"/>
      <point x="744" y="534"/>
      <point x="730" y="534" type="curve" smooth="yes"/>
      <point x="722" y="534"/>
      <point x="715" y="530"/>
      <point x="710" y="523" type="curve" smooth="yes"/>
      <point x="682" y="478"/>
      <point x="645" y="456"/>
      <point x="582" y="456" type="curve" smooth="yes"/>
      <point x="440" y="456" type="line" smooth="yes"/>
      <point x="428" y="456"/>
      <point x="417" y="445"/>
      <point x="417" y="433" type="curve" smooth="yes"/>
      <point x="417" y="421"/>
      <point x="428" y="410"/>
      <point x="440" y="410" type="curve" smooth="yes"/>
      <point x="567" y="410" type="line"/>
      <point x="567" y="309" type="line"/>
      <point x="438" y="309" type="line" smooth="yes"/>
      <point x="426" y="309"/>
      <point x="415" y="298"/>
      <point x="415" y="286" type="curve" smooth="yes"/>
      <point x="415" y="274"/>
      <point x="426" y="263"/>
      <point x="438" y="263" type="curve" smooth="yes"/>
      <point x="565" y="263" type="line"/>
      <point x="615" y="223"/>
      <point x="637" y="177"/>
      <point x="637" y="133" type="curve" smooth="yes"/>
      <point x="637" y="87"/>
      <point x="602" y="46"/>
      <point x="545" y="46" type="curve" smooth="yes"/>
      <point x="480" y="46"/>
      <point x="440" y="79"/>
      <point x="403" y="136" type="curve"/>
      <point x="400" y="142"/>
      <point x="391" y="147"/>
      <point x="384" y="147" type="curve" smooth="yes"/>
      <point x="379" y="147" type="line" smooth="yes"/>
      <point x="372" y="147"/>
      <point x="363" y="142"/>
      <point x="359" y="136" type="curve" smooth="yes"/>
      <point x="320" y="73"/>
      <point x="281" y="46"/>
      <point x="222" y="46" type="curve" smooth="yes"/>
      <point x="165" y="46"/>
      <point x="133" y="81"/>
      <point x="133" y="125" type="curve" smooth="yes"/>
      <point x="133" y="167"/>
      <point x="162" y="202"/>
      <point x="203" y="235" type="curve" smooth="yes"/>
      <point x="269" y="288"/>
      <point x="291" y="327"/>
      <point x="291" y="371" type="curve" smooth="yes"/>
      <point x="291" y="426"/>
      <point x="251" y="471"/>
      <point x="183" y="471" type="curve" smooth="yes"/>
      <point x="140" y="471"/>
      <point x="105" y="451"/>
      <point x="75" y="417" type="curve" smooth="yes"/>
      <point x="71" y="413"/>
      <point x="69" y="407"/>
      <point x="69" y="402" type="curve" smooth="yes"/>
      <point x="69" y="388"/>
      <point x="80" y="379"/>
      <point x="92" y="379" type="curve" smooth="yes"/>
      <point x="99" y="379"/>
      <point x="105" y="382"/>
      <point x="109" y="387" type="curve" smooth="yes"/>
      <point x="129" y="409"/>
      <point x="154" y="425"/>
      <point x="183" y="425" type="curve" smooth="yes"/>
      <point x="219" y="425"/>
      <point x="245" y="402"/>
      <point x="245" y="371" type="curve" smooth="yes"/>
      <point x="245" y="337"/>
      <point x="223" y="310"/>
      <point x="175" y="271" type="curve" smooth="yes"/>
      <point x="120" y="226"/>
      <point x="87" y="179"/>
      <point x="87" y="125" type="curve" smooth="yes"/>
      <point x="87" y="59"/>
      <point x="133" y="0"/>
      <point x="222" y="0" type="curve" smooth="yes"/>
      <point x="289" y="0"/>
      <point x="337" y="25"/>
      <point x="382" y="87" type="curve"/>
      <point x="425" y="30"/>
      <point x="474" y="0"/>
      <point x="545" y="0" type="curve" smooth="yes"/>
      <point x="609" y="0"/>
      <point x="654" y="35"/>
      <point x="673" y="81" type="curve"/>
      <point x="719" y="26"/>
      <point x="768" y="0"/>
      <point x="818" y="0" type="curve" smooth="yes"/>
      <point x="901" y="0"/>
      <point x="942" y="50"/>
      <point x="942" y="125" type="curve" smooth="yes"/>
      <point x="942" y="178"/>
      <point x="917" y="228"/>
      <point x="917" y="288" type="curve" smooth="yes"/>
      <point x="917" y="344"/>
      <point x="957" y="410"/>
      <point x="1036" y="410" type="curve" smooth="yes"/>
      <point x="1116" y="410"/>
      <point x="1211" y="341"/>
      <point x="1234" y="221" type="curve"/>
      <point x="1214" y="226"/>
      <point x="1193" y="229"/>
      <point x="1173" y="229" type="curve" smooth="yes"/>
      <point x="1082" y="229"/>
      <point x="1040" y="171"/>
      <point x="1040" y="106" type="curve" smooth="yes"/>
      <point x="1040" y="48"/>
      <point x="1081" y="-4"/>
    </contour>
    <contour>
      <point x="1152" y="42" type="curve" smooth="yes"/>
      <point x="1111" y="42"/>
      <point x="1086" y="72"/>
      <point x="1086" y="106" type="curve" smooth="yes"/>
      <point x="1086" y="149"/>
      <point x="1116" y="183"/>
      <point x="1173" y="183" type="curve" smooth="yes"/>
      <point x="1196" y="183"/>
      <point x="1219" y="178"/>
      <point x="1239" y="172" type="curve"/>
      <point x="1239" y="167" type="line" smooth="yes"/>
      <point x="1239" y="93"/>
      <point x="1205" y="42"/>
    </contour>
  </outline>
</glyph>
<glyph name="knDUU" format="1">
  <advance width="1337"/>
  <outline>
    <contour>
      <point x="1137" y="-4" type="curve" smooth="yes"/>
      <point x="1210" y="-4"/>
      <point x="1270" y="55"/>
      <point x="1270" y="167" type="curve" smooth="yes"/>
      <point x="1270" y="354"/>
      <point x="1131" y="456"/>
      <point x="1021" y="456" type="curve" smooth="yes"/>
      <point x="912" y="456"/>
      <point x="856" y="366"/>
      <point x="856" y="288" type="curve" smooth="yes"/>
      <point x="856" y="228"/>
      <point x="881" y="178"/>
      <point x="881" y="125" type="curve" smooth="yes"/>
      <point x="881" y="78"/>
      <point x="856" y="46"/>
      <point x="803" y="46" type="curve" smooth="yes"/>
      <point x="747" y="46"/>
      <point x="706" y="88"/>
      <point x="667" y="147" type="curve"/>
      <point x="668" y="154"/>
      <point x="668" y="161"/>
      <point x="668" y="168" type="curve" smooth="yes"/>
      <point x="668" y="254"/>
      <point x="608" y="346"/>
      <point x="514" y="410" type="curve"/>
      <point x="597" y="410"/>
      <point x="645" y="440"/>
      <point x="682" y="499" type="curve" smooth="yes"/>
      <point x="684" y="503"/>
      <point x="685" y="507"/>
      <point x="685" y="511" type="curve" smooth="yes"/>
      <point x="685" y="524"/>
      <point x="676" y="534"/>
      <point x="662" y="534" type="curve" smooth="yes"/>
      <point x="654" y="534"/>
      <point x="647" y="530"/>
      <point x="642" y="523" type="curve" smooth="yes"/>
      <point x="614" y="478"/>
      <point x="577" y="456"/>
      <point x="514" y="456" type="curve" smooth="yes"/>
      <point x="111" y="456" type="line" smooth="yes"/>
      <point x="99" y="456"/>
      <point x="88" y="445"/>
      <point x="88" y="433" type="curve" smooth="yes"/>
      <point x="88" y="421"/>
      <point x="99" y="410"/>
      <point x="111" y="410" type="curve" smooth="yes"/>
      <point x="231" y="410" type="line"/>
      <point x="141" y="346"/>
      <point x="83" y="254"/>
      <point x="83" y="168" type="curve" smooth="yes"/>
      <point x="83" y="59"/>
      <point x="146" y="0"/>
      <point x="231" y="0" type="curve" smooth="yes"/>
      <point x="294" y="0"/>
      <point x="337" y="27"/>
      <point x="373" y="83" type="curve"/>
      <point x="410" y="25"/>
      <point x="452" y="0"/>
      <point x="519" y="0" type="curve" smooth="yes"/>
      <point x="578" y="0"/>
      <point x="629" y="30"/>
      <point x="653" y="87" type="curve"/>
      <point x="700" y="28"/>
      <point x="751" y="0"/>
      <point x="803" y="0" type="curve" smooth="yes"/>
      <point x="886" y="0"/>
      <point x="927" y="50"/>
      <point x="927" y="125" type="curve" smooth="yes"/>
      <point x="927" y="178"/>
      <point x="902" y="228"/>
      <point x="902" y="288" type="curve" smooth="yes"/>
      <point x="902" y="344"/>
      <point x="942" y="410"/>
      <point x="1021" y="410" type="curve" smooth="yes"/>
      <point x="1101" y="410"/>
      <point x="1196" y="341"/>
      <point x="1219" y="221" type="curve"/>
      <point x="1199" y="226"/>
      <point x="1178" y="229"/>
      <point x="1158" y="229" type="curve" smooth="yes"/>
      <point x="1067" y="229"/>
      <point x="1025" y="171"/>
      <point x="1025" y="106" type="curve" smooth="yes"/>
      <point x="1025" y="48"/>
      <point x="1066" y="-4"/>
    </contour>
    <contour>
      <point x="519" y="46" type="curve" smooth="yes"/>
      <point x="459" y="46"/>
      <point x="427" y="75"/>
      <point x="395" y="135" type="curve" smooth="yes"/>
      <point x="391" y="142"/>
      <point x="383" y="147"/>
      <point x="375" y="147" type="curve" smooth="yes"/>
      <point x="370" y="147" type="line" smooth="yes"/>
      <point x="362" y="147"/>
      <point x="353" y="141"/>
      <point x="350" y="135" type="curve" smooth="yes"/>
      <point x="320" y="77"/>
      <point x="287" y="46"/>
      <point x="231" y="46" type="curve" smooth="yes"/>
      <point x="170" y="46"/>
      <point x="129" y="93"/>
      <point x="129" y="168" type="curve" smooth="yes"/>
      <point x="129" y="262"/>
      <point x="211" y="358"/>
      <point x="323" y="410" type="curve"/>
      <point x="421" y="410" type="line"/>
      <point x="536" y="358"/>
      <point x="622" y="261"/>
      <point x="622" y="168" type="curve" smooth="yes"/>
      <point x="622" y="93"/>
      <point x="580" y="46"/>
    </contour>
    <contour>
      <point x="1137" y="42" type="curve" smooth="yes"/>
      <point x="1096" y="42"/>
      <point x="1071" y="72"/>
      <point x="1071" y="106" type="curve" smooth="yes"/>
      <point x="1071" y="149"/>
      <point x="1101" y="183"/>
      <point x="1158" y="183" type="curve" smooth="yes"/>
      <point x="1181" y="183"/>
      <point x="1204" y="178"/>
      <point x="1224" y="172" type="curve"/>
      <point x="1224" y="167" type="line" smooth="yes"/>
      <point x="1224" y="93"/>
      <point x="1190" y="42"/>
    </contour>
  </outline>
</glyph>
<glyph name="knHAc2.following" format="1">
  <advance width="573"/>
  <outline>
    <contour>
      <point x="612" y="-363" type="curve" smooth="yes"/>
      <point x="701" y="-363"/>
      <point x="749" y="-305"/>
      <point x="749" y="-238" type="curve" smooth="yes"/>
      <point x="749" y="-175"/>
      <point x="700" y="-116"/>
      <point x="612" y="-116" type="curve" smooth="yes"/>
      <point x="549" y="-116"/>
      <point x="502" y="-149"/>
      <point x="482" y="-192" type="curve"/>
      <point x="464" y="-149"/>
      <point x="418" y="-116"/>
      <point x="350" y="-116" type="curve" smooth="yes"/>
      <point x="268" y="-116"/>
      <point x="215" y="-175"/>
      <point x="215" y="-238" type="curve" smooth="yes"/>
      <point x="215" y="-306"/>
      <point x="267" y="-363"/>
      <point x="350" y="-363" type="curve" smooth="yes"/>
      <point x="417" y="-363"/>
      <point x="463" y="-330"/>
      <point x="482" y="-286" type="curve"/>
      <point x="502" y="-330"/>
      <point x="550" y="-363"/>
    </contour>
    <contour>
      <point x="707" y="-238" type="curve" smooth="yes"/>
      <point x="707" y="-285"/>
      <point x="671" y="-321"/>
      <point x="612" y="-321" type="curve" smooth="yes"/>
      <point x="557" y="-321"/>
      <point x="514" y="-285"/>
      <point x="514" y="-238" type="curve" smooth="yes"/>
      <point x="514" y="-194"/>
      <point x="557" y="-158"/>
      <point x="612" y="-158" type="curve" smooth="yes"/>
      <point x="670" y="-158"/>
      <point x="707" y="-195"/>
    </contour>
    <contour>
      <point x="450" y="-238" type="curve" smooth="yes"/>
      <point x="450" y="-285"/>
      <point x="409" y="-321"/>
      <point x="350" y="-321" type="curve" smooth="yes"/>
      <point x="295" y="-321"/>
      <point x="257" y="-285"/>
      <point x="257" y="-238" type="curve" smooth="yes"/>
      <point x="257" y="-195"/>
      <point x="296" y="-158"/>
      <point x="350" y="-158" type="curve" smooth="yes"/>
      <point x="410" y="-158"/>
      <point x="450" y="-194"/>
    </contour>
  </outline>
</glyph>
<glyph name="knJHE" format="1">
  <advance width="1244"/>
  <outline>
    <contour>
      <point x="455" y="508" type="curve" smooth="yes"/>
      <point x="455" y="553"/>
      <point x="483" y="589"/>
      <point x="526" y="589" type="curve" smooth="yes"/>
      <point x="562" y="589"/>
      <point x="589" y="566"/>
      <point x="589" y="532" type="curve" smooth="yes"/>
      <point x="589" y="487"/>
      <point x="551" y="456"/>
      <point x="462" y="456" type="curve"/>
      <point x="459" y="470"/>
      <point x="455" y="489"/>
    </contour>
    <contour>
      <point x="146" y="223" type="curve" smooth="yes"/>
      <point x="146" y="322"/>
      <point x="227" y="410"/>
      <point x="333" y="410" type="curve" smooth="yes"/>
      <point x="441" y="410"/>
      <point x="516" y="320"/>
      <point x="516" y="223" type="curve" smooth="yes"/>
      <point x="516" y="121"/>
      <point x="444" y="42"/>
      <point x="331" y="42" type="curve" smooth="yes"/>
      <point x="220" y="42"/>
      <point x="146" y="119"/>
    </contour>
    <contour>
      <point x="865" y="-93" type="line" smooth="yes"/>
      <point x="865" y="-81"/>
      <point x="854" y="-70"/>
      <point x="842" y="-70" type="curve" smooth="yes"/>
      <point x="830" y="-70"/>
      <point x="819" y="-81"/>
      <point x="819" y="-93" type="curve" smooth="yes"/>
      <point x="819" y="-196" type="line" smooth="yes"/>
      <point x="819" y="-208"/>
      <point x="830" y="-219"/>
      <point x="842" y="-219" type="curve" smooth="yes"/>
      <point x="854" y="-219"/>
      <point x="865" y="-208"/>
      <point x="865" y="-196" type="curve" smooth="yes"/>
    </contour>
    <contour>
      <point x="866" y="169" type="curve" smooth="yes"/>
      <point x="866" y="258"/>
      <point x="814" y="363"/>
      <point x="754" y="427" type="curve" smooth="yes"/>
      <point x="749" y="432"/>
      <point x="744" y="435"/>
      <point x="737" y="435" type="curve" smooth="yes"/>
      <point x="725" y="435"/>
      <point x="714" y="425"/>
      <point x="714" y="412" type="curve" smooth="yes"/>
      <point x="714" y="407"/>
      <point x="716" y="401"/>
      <point x="720" y="397" type="curve" smooth="yes"/>
      <point x="775" y="337"/>
      <point x="820" y="245"/>
      <point x="820" y="169" type="curve" smooth="yes"/>
      <point x="820" y="97"/>
      <point x="782" y="46"/>
      <point x="704" y="46" type="curve" smooth="yes"/>
      <point x="642" y="46"/>
      <point x="597" y="79"/>
      <point x="552" y="150" type="curve"/>
      <point x="558" y="173"/>
      <point x="562" y="197"/>
      <point x="562" y="223" type="curve" smooth="yes"/>
      <point x="562" y="296"/>
      <point x="527" y="366"/>
      <point x="470" y="410" type="curve"/>
      <point x="603" y="413"/>
      <point x="635" y="472"/>
      <point x="635" y="532" type="curve" smooth="yes"/>
      <point x="635" y="590"/>
      <point x="592" y="635"/>
      <point x="526" y="635" type="curve" smooth="yes"/>
      <point x="459" y="635"/>
      <point x="409" y="583"/>
      <point x="409" y="508" type="curve" smooth="yes"/>
      <point x="409" y="490"/>
      <point x="412" y="471"/>
      <point x="415" y="456" type="curve"/>
      <point x="94" y="456" type="line" smooth="yes"/>
      <point x="82" y="456"/>
      <point x="71" y="445"/>
      <point x="71" y="433" type="curve" smooth="yes"/>
      <point x="71" y="421"/>
      <point x="82" y="410"/>
      <point x="94" y="410" type="curve" smooth="yes"/>
      <point x="195" y="410" type="line"/>
      <point x="137" y="367"/>
      <point x="100" y="297"/>
      <point x="100" y="223" type="curve" smooth="yes"/>
      <point x="100" y="93"/>
      <point x="192" y="-4"/>
      <point x="331" y="-4" type="curve" smooth="yes"/>
      <point x="422" y="-4"/>
      <point x="492" y="37"/>
      <point x="530" y="101" type="curve"/>
      <point x="583" y="25"/>
      <point x="639" y="0"/>
      <point x="704" y="0" type="curve" smooth="yes"/>
      <point x="778" y="0"/>
      <point x="827" y="33"/>
      <point x="851" y="87" type="curve"/>
      <point x="901" y="22"/>
      <point x="954" y="0"/>
      <point x="1015" y="0" type="curve" smooth="yes"/>
      <point x="1121" y="0"/>
      <point x="1177" y="69"/>
      <point x="1177" y="169" type="curve" smooth="yes"/>
      <point x="1177" y="255"/>
      <point x="1129" y="357"/>
      <point x="1065" y="427" type="curve"/>
      <point x="1061" y="432"/>
      <point x="1055" y="435"/>
      <point x="1048" y="435" type="curve" smooth="yes"/>
      <point x="1036" y="435"/>
      <point x="1025" y="425"/>
      <point x="1025" y="412" type="curve" smooth="yes"/>
      <point x="1025" y="407"/>
      <point x="1027" y="401"/>
      <point x="1031" y="397" type="curve"/>
      <point x="1087" y="335"/>
      <point x="1131" y="245"/>
      <point x="1131" y="169" type="curve" smooth="yes"/>
      <point x="1131" y="97"/>
      <point x="1093" y="46"/>
      <point x="1015" y="46" type="curve" smooth="yes"/>
      <point x="961" y="46"/>
      <point x="915" y="72"/>
      <point x="871" y="138" type="curve" smooth="yes"/>
      <point x="869" y="141"/>
      <point x="867" y="144"/>
      <point x="865" y="146" type="curve"/>
      <point x="866" y="153"/>
      <point x="866" y="161"/>
    </contour>
  </outline>
</glyph>
<glyph name="knKHAc2" format="1">
  <advance width="119"/>
  <outline>
    <contour>
      <point x="-203" y="-335" type="curve" smooth="yes"/>
      <point x="-230" y="-335"/>
      <point x="-253" y="-321"/>
      <point x="-253" y="-298" type="curve" smooth="yes"/>
      <point x="-253" y="-277"/>
      <point x="-236" y="-267"/>
      <point x="-213" y="-267" type="curve" smooth="yes"/>
      <point x="-185" y="-267"/>
      <point x="-152" y="-280"/>
      <point x="-119" y="-308" type="curve"/>
      <point x="-141" y="-325"/>
      <point x="-170" y="-335"/>
    </contour>
    <contour>
      <point x="22" y="-373" type="curve" smooth="yes"/>
      <point x="90" y="-373"/>
      <point x="137" y="-333"/>
      <point x="137" y="-225" type="curve" smooth="yes"/>
      <point x="137" y="-142"/>
      <point x="107" y="-12"/>
      <point x="75" y="53" type="curve" smooth="yes"/>
      <point x="71" y="60"/>
      <point x="63" y="65"/>
      <point x="55" y="65" type="curve" smooth="yes"/>
      <point x="45" y="65"/>
      <point x="35" y="57"/>
      <point x="35" y="43" type="curve" smooth="yes"/>
      <point x="35" y="41"/>
      <point x="39" y="32"/>
      <point x="51" y="2" type="curve" smooth="yes"/>
      <point x="65" y="-33"/>
      <point x="95" y="-148"/>
      <point x="95" y="-225" type="curve" smooth="yes"/>
      <point x="95" y="-293"/>
      <point x="70" y="-331"/>
      <point x="22" y="-331" type="curve" smooth="yes"/>
      <point x="-5" y="-331"/>
      <point x="-31" y="-324"/>
      <point x="-58" y="-305" type="curve"/>
      <point x="-41" y="-281"/>
      <point x="-32" y="-253"/>
      <point x="-32" y="-226" type="curve" smooth="yes"/>
      <point x="-32" y="-148"/>
      <point x="-91" y="-107"/>
      <point x="-164" y="-107" type="curve" smooth="yes"/>
      <point x="-194" y="-107"/>
      <point x="-217" y="-114"/>
      <point x="-234" y="-119" type="curve" smooth="yes"/>
      <point x="-242" y="-122"/>
      <point x="-248" y="-131"/>
      <point x="-248" y="-139" type="curve" smooth="yes"/>
      <point x="-248" y="-153"/>
      <point x="-237" y="-160"/>
      <point x="-227" y="-160" type="curve" smooth="yes"/>
      <point x="-224" y="-160"/>
      <point x="-219" y="-159"/>
      <point x="-209" y="-155" type="curve" smooth="yes"/>
      <point x="-202" y="-152"/>
      <point x="-185" y="-149"/>
      <point x="-164" y="-149" type="curve" smooth="yes"/>
      <point x="-117" y="-149"/>
      <point x="-74" y="-172"/>
      <point x="-74" y="-226" type="curve" smooth="yes"/>
      <point x="-74" y="-244"/>
      <point x="-80" y="-263"/>
      <point x="-91" y="-279" type="curve"/>
      <point x="-134" y="-240"/>
      <point x="-177" y="-225"/>
      <point x="-213" y="-225" type="curve" smooth="yes"/>
      <point x="-266" y="-225"/>
      <point x="-295" y="-255"/>
      <point x="-295" y="-298" type="curve" smooth="yes"/>
      <point x="-295" y="-341"/>
      <point x="-262" y="-377"/>
      <point x="-203" y="-377" type="curve" smooth="yes"/>
      <point x="-155" y="-377"/>
      <point x="-116" y="-361"/>
      <point x="-87" y="-337" type="curve"/>
      <point x="-51" y="-363"/>
      <point x="-15" y="-373"/>
    </contour>
  </outline>
</glyph>
<glyph name="knLLLAc2.following" format="1">
  <advance width="511"/>
  <outline>
    <contour>
      <point x="542" y="-206" type="curve" smooth="yes"/>
      <point x="522" y="-206"/>
      <point x="503" y="-196"/>
      <point x="503" y="-175" type="curve" smooth="yes"/>
      <point x="503" y="-156"/>
      <point x="516" y="-142"/>
      <point x="540" y="-142" type="curve" smooth="yes"/>
      <point x="566" y="-142"/>
      <point x="588" y="-161"/>
      <point x="600" y="-190" type="curve"/>
      <point x="580" y="-201"/>
      <point x="564" y="-206"/>
    </contour>
    <contour>
      <point x="319" y="-206" type="curve" smooth="yes"/>
      <point x="298" y="-206"/>
      <point x="281" y="-201"/>
      <point x="261" y="-189" type="curve"/>
      <point x="273" y="-161"/>
      <point x="294" y="-142"/>
      <point x="320" y="-142" type="curve" smooth="yes"/>
      <point x="343" y="-142"/>
      <point x="359" y="-153"/>
      <point x="359" y="-174" type="curve" smooth="yes"/>
      <point x="359" y="-196"/>
      <point x="339" y="-206"/>
    </contour>
    <contour>
      <point x="653" y="-248" type="curve" smooth="yes"/>
      <point x="653" y="-157"/>
      <point x="598" y="-100"/>
      <point x="540" y="-100" type="curve" smooth="yes"/>
      <point x="486" y="-100"/>
      <point x="461" y="-134"/>
      <point x="461" y="-175" type="curve" smooth="yes"/>
      <point x="461" y="-220"/>
      <point x="496" y="-248"/>
      <point x="542" y="-248" type="curve" smooth="yes"/>
      <point x="567" y="-248"/>
      <point x="588" y="-243"/>
      <point x="610" y="-232" type="curve"/>
      <point x="611" y="-237"/>
      <point x="611" y="-243"/>
      <point x="611" y="-248" type="curve" smooth="yes"/>
      <point x="611" y="-303"/>
      <point x="577" y="-335"/>
      <point x="530" y="-335" type="curve" smooth="yes"/>
      <point x="491" y="-335"/>
      <point x="469" y="-320"/>
      <point x="448" y="-296" type="curve"/>
      <point x="444" y="-292"/>
      <point x="437" y="-289"/>
      <point x="432" y="-289" type="curve" smooth="yes"/>
      <point x="429" y="-289" type="line" smooth="yes"/>
      <point x="424" y="-289"/>
      <point x="417" y="-292"/>
      <point x="413" y="-296" type="curve" smooth="yes"/>
      <point x="392" y="-321"/>
      <point x="370" y="-335"/>
      <point x="331" y="-335" type="curve" smooth="yes"/>
      <point x="284" y="-335"/>
      <point x="250" y="-303"/>
      <point x="250" y="-248" type="curve" smooth="yes"/>
      <point x="250" y="-242"/>
      <point x="250" y="-237"/>
      <point x="251" y="-231" type="curve"/>
      <point x="274" y="-243"/>
      <point x="294" y="-248"/>
      <point x="319" y="-248" type="curve" smooth="yes"/>
      <point x="365" y="-248"/>
      <point x="401" y="-218"/>
      <point x="401" y="-174" type="curve" smooth="yes"/>
      <point x="401" y="-131"/>
      <point x="373" y="-100"/>
      <point x="320" y="-100" type="curve" smooth="yes"/>
      <point x="262" y="-100"/>
      <point x="208" y="-157"/>
      <point x="208" y="-248" type="curve" smooth="yes"/>
      <point x="208" y="-331"/>
      <point x="262" y="-377"/>
      <point x="331" y="-377" type="curve" smooth="yes"/>
      <point x="375" y="-377"/>
      <point x="405" y="-363"/>
      <point x="431" y="-339" type="curve"/>
      <point x="457" y="-364"/>
      <point x="485" y="-377"/>
      <point x="530" y="-377" type="curve" smooth="yes"/>
      <point x="599" y="-377"/>
      <point x="653" y="-331"/>
    </contour>
  </outline>
</glyph>
<glyph name="knNA.base" format="1">
  <advance width="640"/>
  <outline>
    <contour>
      <point x="138" y="13" type="curve" smooth="yes"/>
      <point x="138" y="81"/>
      <point x="147" y="136"/>
      <point x="172" y="162" type="curve" smooth="yes"/>
      <point x="183" y="173"/>
      <point x="199" y="182"/>
      <point x="220" y="182" type="curve" smooth="yes"/>
      <point x="253" y="182"/>
      <point x="288" y="161"/>
      <point x="318" y="110" type="curve" smooth="yes"/>
      <point x="361" y="39"/>
      <point x="396" y="0"/>
      <point x="463" y="0" type="curve" smooth="yes"/>
      <point x="523" y="0"/>
      <point x="597" y="45"/>
      <point x="597" y="168" type="curve" smooth="yes"/>
      <point x="597" y="257"/>
      <point x="540" y="347"/>
      <point x="454" y="416" type="curve"/>
      <point x="459" y="420"/>
      <point x="463" y="426"/>
      <point x="463" y="433" type="curve" smooth="yes"/>
      <point x="463" y="445"/>
      <point x="452" y="456"/>
      <point x="440" y="456" type="curve" smooth="yes"/>
      <point x="106" y="456" type="line" smooth="yes"/>
      <point x="94" y="456"/>
      <point x="83" y="445"/>
      <point x="83" y="433" type="curve" smooth="yes"/>
      <point x="83" y="421"/>
      <point x="94" y="410"/>
      <point x="106" y="410" type="curve" smooth="yes"/>
      <point x="382" y="410" type="line"/>
      <point x="478" y="349"/>
      <point x="551" y="259"/>
      <point x="551" y="168" type="curve" smooth="yes"/>
      <point x="551" y="87"/>
      <point x="507" y="46"/>
      <point x="463" y="46" type="curve" smooth="yes"/>
      <point x="412" y="46"/>
      <point x="389" y="83"/>
      <point x="358" y="134" type="curve" smooth="yes"/>
      <point x="314" y="205"/>
      <point x="265" y="228"/>
      <point x="220" y="228" type="curve" smooth="yes"/>
      <point x="185" y="228"/>
      <point x="159" y="213"/>
      <point x="140" y="194" type="curve" smooth="yes"/>
      <point x="109" y="164"/>
      <point x="92" y="99"/>
      <point x="92" y="13" type="curve" smooth="yes"/>
      <point x="92" y="1"/>
      <point x="103" y="-10"/>
      <point x="115" y="-10" type="curve" smooth="yes"/>
      <point x="127" y="-10"/>
      <point x="138" y="1"/>
    </contour>
  </outline>
</glyph>
<glyph name="knNYE" format="1">
  <advance width="1261"/>
  <outline>
    <contour>
      <point x="1056" y="508" type="curve" smooth="yes"/>
      <point x="1056" y="553"/>
      <point x="1084" y="589"/>
      <point x="1127" y="589" type="curve" smooth="yes"/>
      <point x="1163" y="589"/>
      <point x="1190" y="566"/>
      <point x="1190" y="532" type="curve" smooth="yes"/>
      <point x="1190" y="487"/>
      <point x="1152" y="456"/>
      <point x="1063" y="456" type="curve"/>
      <point x="1060" y="470"/>
      <point x="1056" y="489"/>
    </contour>
    <contour>
      <point x="571" y="-46" type="curve" smooth="yes"/>
      <point x="584" y="-46"/>
      <point x="594" y="-34"/>
      <point x="594" y="-23" type="curve" smooth="yes"/>
      <point x="594" y="-19"/>
      <point x="590" y="-8"/>
      <point x="580" y="18" type="curve" smooth="yes"/>
      <point x="568" y="49"/>
      <point x="553" y="76"/>
      <point x="537" y="101" type="curve"/>
      <point x="606" y="162"/>
      <point x="647" y="247"/>
      <point x="647" y="312" type="curve" smooth="yes"/>
      <point x="647" y="320"/>
      <point x="647" y="328"/>
      <point x="646" y="336" type="curve"/>
      <point x="669" y="375"/>
      <point x="701" y="410"/>
      <point x="748" y="410" type="curve" smooth="yes"/>
      <point x="799" y="410"/>
      <point x="815" y="371"/>
      <point x="815" y="332" type="curve" smooth="yes"/>
      <point x="815" y="261"/>
      <point x="860" y="221"/>
      <point x="924" y="221" type="curve" smooth="yes"/>
      <point x="1003" y="221"/>
      <point x="1057" y="279"/>
      <point x="1063" y="410" type="curve"/>
      <point x="1206" y="410"/>
      <point x="1236" y="471"/>
      <point x="1236" y="532" type="curve" smooth="yes"/>
      <point x="1236" y="590"/>
      <point x="1193" y="635"/>
      <point x="1127" y="635" type="curve" smooth="yes"/>
      <point x="1060" y="635"/>
      <point x="1010" y="583"/>
      <point x="1010" y="508" type="curve" smooth="yes"/>
      <point x="1010" y="490"/>
      <point x="1013" y="471"/>
      <point x="1016" y="456" type="curve"/>
      <point x="947" y="456" type="line" smooth="yes"/>
      <point x="935" y="456"/>
      <point x="924" y="445"/>
      <point x="924" y="433" type="curve" smooth="yes"/>
      <point x="924" y="421"/>
      <point x="935" y="410"/>
      <point x="947" y="410" type="curve" smooth="yes"/>
      <point x="1017" y="410" type="line"/>
      <point x="1013" y="324"/>
      <point x="984" y="267"/>
      <point x="924" y="267" type="curve" smooth="yes"/>
      <point x="886" y="267"/>
      <point x="861" y="291"/>
      <point x="861" y="332" type="curve" smooth="yes"/>
      <point x="861" y="397"/>
      <point x="829" y="456"/>
      <point x="748" y="456" type="curve" smooth="yes"/>
      <point x="699" y="456"/>
      <point x="660" y="431"/>
      <point x="629" y="393" type="curve"/>
      <point x="606" y="437"/>
      <point x="562" y="462"/>
      <point x="508" y="462" type="curve" smooth="yes"/>
      <point x="442" y="462"/>
      <point x="397" y="426"/>
      <point x="358" y="366" type="curve"/>
      <point x="318" y="425"/>
      <point x="268" y="463"/>
      <point x="199" y="463" type="curve" smooth="yes"/>
      <point x="116" y="463"/>
      <point x="65" y="402"/>
      <point x="65" y="328" type="curve" smooth="yes"/>
      <point x="65" y="300"/>
      <point x="73" y="272"/>
      <point x="91" y="242" type="curve" smooth="yes"/>
      <point x="96" y="235"/>
      <point x="103" y="231"/>
      <point x="111" y="231" type="curve" smooth="yes"/>
      <point x="125" y="231"/>
      <point x="134" y="242"/>
      <point x="134" y="254" type="curve" smooth="yes"/>
      <point x="134" y="258"/>
      <point x="133" y="262"/>
      <point x="131" y="266" type="curve" smooth="yes"/>
      <point x="117" y="288"/>
      <point x="111" y="308"/>
      <point x="111" y="328" type="curve" smooth="yes"/>
      <point x="111" y="376"/>
      <point x="144" y="417"/>
      <point x="199" y="417" type="curve" smooth="yes"/>
      <point x="263" y="417"/>
      <point x="304" y="373"/>
      <point x="335" y="315" type="curve" smooth="yes"/>
      <point x="339" y="308"/>
      <point x="348" y="303"/>
      <point x="355" y="303" type="curve" smooth="yes"/>
      <point x="360" y="303" type="line" smooth="yes"/>
      <point x="367" y="303"/>
      <point x="376" y="308"/>
      <point x="380" y="315" type="curve" smooth="yes"/>
      <point x="414" y="373"/>
      <point x="448" y="416"/>
      <point x="508" y="416" type="curve" smooth="yes"/>
      <point x="565" y="416"/>
      <point x="601" y="375"/>
      <point x="601" y="312" type="curve" smooth="yes"/>
      <point x="601" y="258"/>
      <point x="567" y="188"/>
      <point x="510" y="137" type="curve"/>
      <point x="461" y="194"/>
      <point x="400" y="225"/>
      <point x="335" y="225" type="curve" smooth="yes"/>
      <point x="242" y="225"/>
      <point x="207" y="167"/>
      <point x="207" y="122" type="curve" smooth="yes"/>
      <point x="207" y="76"/>
      <point x="242" y="20"/>
      <point x="336" y="20" type="curve" smooth="yes"/>
      <point x="398" y="20"/>
      <point x="454" y="41"/>
      <point x="500" y="72" type="curve"/>
      <point x="519" y="43"/>
      <point x="536" y="9"/>
      <point x="549" y="-30" type="curve" smooth="yes"/>
      <point x="552" y="-40"/>
      <point x="562" y="-46"/>
    </contour>
    <contour>
      <point x="336" y="66" type="curve" smooth="yes"/>
      <point x="284" y="66"/>
      <point x="253" y="92"/>
      <point x="253" y="122" type="curve" smooth="yes"/>
      <point x="253" y="151"/>
      <point x="284" y="179"/>
      <point x="335" y="179" type="curve" smooth="yes"/>
      <point x="385" y="179"/>
      <point x="433" y="154"/>
      <point x="473" y="108" type="curve"/>
      <point x="434" y="83"/>
      <point x="387" y="66"/>
    </contour>
  </outline>
</glyph>
<glyph name="knSAU" format="1">
  <advance width="997"/>
  <outline>
    <contour>
      <point x="794" y="201" type="curve" smooth="yes"/>
      <point x="867" y="201"/>
      <point x="927" y="259"/>
      <point x="927" y="367" type="curve" smooth="yes"/>
      <point x="927" y="545"/>
      <point x="813" y="627"/>
      <point x="653" y="627" type="curve" smooth="yes"/>
      <point x="429" y="627" type="line" smooth="yes"/>
      <point x="417" y="627"/>
      <point x="406" y="616"/>
      <point x="406" y="604" type="curve" smooth="yes"/>
      <point x="406" y="592"/>
      <point x="417" y="581"/>
      <point x="429" y="581" type="curve" smooth="yes"/>
      <point x="601" y="581" type="line"/>
      <point x="595" y="499"/>
      <point x="544" y="456"/>
      <point x="465" y="456" type="curve" smooth="yes"/>
      <point x="93" y="456" type="line" smooth="yes"/>
      <point x="81" y="456"/>
      <point x="70" y="445"/>
      <point x="70" y="433" type="curve" smooth="yes"/>
      <point x="70" y="421"/>
      <point x="81" y="410"/>
      <point x="93" y="410" type="curve" smooth="yes"/>
      <point x="253" y="410" type="line"/>
      <point x="242" y="390"/>
      <point x="238" y="370"/>
      <point x="238" y="352" type="curve" smooth="yes"/>
      <point x="238" y="298"/>
      <point x="279" y="246"/>
      <point x="353" y="246" type="curve" smooth="yes"/>
      <point x="429" y="246"/>
      <point x="468" y="297"/>
      <point x="468" y="353" type="curve" smooth="yes"/>
      <point x="468" y="371"/>
      <point x="464" y="391"/>
      <point x="454" y="410" type="curve"/>
      <point x="468" y="410" type="line" smooth="yes"/>
      <point x="574" y="410"/>
      <point x="641" y="469"/>
      <point x="647" y="581" type="curve"/>
      <point x="653" y="581" type="line" smooth="yes"/>
      <point x="767" y="581"/>
      <point x="854" y="532"/>
      <point x="876" y="424" type="curve"/>
      <point x="856" y="428"/>
      <point x="835" y="431"/>
      <point x="815" y="431" type="curve" smooth="yes"/>
      <point x="724" y="431"/>
      <point x="682" y="373"/>
      <point x="682" y="308" type="curve" smooth="yes"/>
      <point x="682" y="250"/>
      <point x="725" y="201"/>
    </contour>
    <contour>
      <point x="353" y="292" type="curve" smooth="yes"/>
      <point x="311" y="292"/>
      <point x="284" y="320"/>
      <point x="284" y="352" type="curve" smooth="yes"/>
      <point x="284" y="371"/>
      <point x="291" y="392"/>
      <point x="310" y="410" type="curve"/>
      <point x="398" y="410" type="line"/>
      <point x="416" y="391"/>
      <point x="422" y="371"/>
      <point x="422" y="353" type="curve" smooth="yes"/>
      <point x="422" y="319"/>
      <point x="397" y="292"/>
    </contour>
    <contour>
      <point x="794" y="247" type="curve" smooth="yes"/>
      <point x="755" y="247"/>
      <point x="728" y="274"/>
      <point x="728" y="308" type="curve" smooth="yes"/>
      <point x="728" y="351"/>
      <point x="758" y="385"/>
      <point x="815" y="385" type="curve" smooth="yes"/>
      <point x="838" y="385"/>
      <point x="861" y="380"/>
      <point x="881" y="374" type="curve"/>
      <point x="881" y="367"/>
      <point x="881" y="367"/>
      <point x="881" y="367" type="curve"/>
      <point x="881" y="297"/>
      <point x="847" y="247"/>
    </contour>
    <contour>
      <point x="95" y="13" type="curve" smooth="yes"/>
      <point x="95" y="1"/>
      <point x="106" y="-10"/>
      <point x="118" y="-10" type="curve" smooth="yes"/>
      <point x="130" y="-10"/>
      <point x="141" y="1"/>
      <point x="141" y="13" type="curve" smooth="yes"/>
      <point x="141" y="74"/>
      <point x="153" y="118"/>
      <point x="176" y="141" type="curve" smooth="yes"/>
      <point x="188" y="153"/>
      <point x="207" y="162"/>
      <point x="229" y="162" type="curve" smooth="yes"/>
      <point x="261" y="162"/>
      <point x="296" y="144"/>
      <point x="328" y="100" type="curve" smooth="yes"/>
      <point x="373" y="40"/>
      <point x="409" y="0"/>
      <point x="476" y="0" type="curve" smooth="yes"/>
      <point x="550" y="0"/>
      <point x="614" y="47"/>
      <point x="614" y="168" type="curve" smooth="yes"/>
      <point x="614" y="198"/>
      <point x="608" y="239"/>
      <point x="598" y="270" type="curve" smooth="yes"/>
      <point x="595" y="280"/>
      <point x="586" y="286"/>
      <point x="576" y="286" type="curve" smooth="yes"/>
      <point x="564" y="286"/>
      <point x="553" y="275"/>
      <point x="553" y="263" type="curve" smooth="yes"/>
      <point x="553" y="260"/>
      <point x="554" y="256"/>
      <point x="556" y="249" type="curve" smooth="yes"/>
      <point x="562" y="228"/>
      <point x="568" y="194"/>
      <point x="568" y="168" type="curve" smooth="yes"/>
      <point x="568" y="87"/>
      <point x="530" y="46"/>
      <point x="476" y="46" type="curve" smooth="yes"/>
      <point x="423" y="46"/>
      <point x="399" y="82"/>
      <point x="366" y="128" type="curve" smooth="yes"/>
      <point x="322" y="188"/>
      <point x="271" y="208"/>
      <point x="229" y="208" type="curve" smooth="yes"/>
      <point x="193" y="208"/>
      <point x="164" y="193"/>
      <point x="144" y="173" type="curve" smooth="yes"/>
      <point x="115" y="144"/>
      <point x="95" y="92"/>
    </contour>
  </outline>
</glyph>
<glyph name="knSU" format="1">
  <advance width="1002"/>
  <outline>
    <contour>
      <point x="353" y="246" type="curve" smooth="yes"/>
      <point x="429" y="246"/>
      <point x="468" y="297"/>
      <point x="468" y="353" type="curve" smooth="yes"/>
      <point x="468" y="371"/>
      <point x="464" y="391"/>
      <point x="454" y="410" type="curve"/>
      <point x="474" y="410" type="line" smooth="yes"/>
      <point x="557" y="410"/>
      <point x="605" y="440"/>
      <point x="642" y="499" type="curve" smooth="yes"/>
      <point x="644" y="503"/>
      <point x="645" y="507"/>
      <point x="645" y="511" type="curve" smooth="yes"/>
      <point x="645" y="523"/>
      <point x="636" y="534"/>
      <point x="622" y="534" type="curve" smooth="yes"/>
      <point x="614" y="534"/>
      <point x="607" y="530"/>
      <point x="602" y="523" type="curve" smooth="yes"/>
      <point x="574" y="478"/>
      <point x="537" y="456"/>
      <point x="474" y="456" type="curve" smooth="yes"/>
      <point x="93" y="456" type="line" smooth="yes"/>
      <point x="81" y="456"/>
      <point x="70" y="445"/>
      <point x="70" y="433" type="curve" smooth="yes"/>
      <point x="70" y="421"/>
      <point x="81" y="410"/>
      <point x="93" y="410" type="curve" smooth="yes"/>
      <point x="253" y="410" type="line"/>
      <point x="242" y="390"/>
      <point x="238" y="370"/>
      <point x="238" y="352" type="curve" smooth="yes"/>
      <point x="238" y="298"/>
      <point x="279" y="246"/>
    </contour>
    <contour>
      <point x="353" y="292" type="curve" smooth="yes"/>
      <point x="311" y="292"/>
      <point x="284" y="320"/>
      <point x="284" y="352" type="curve" smooth="yes"/>
      <point x="284" y="371"/>
      <point x="291" y="392"/>
      <point x="310" y="410" type="curve"/>
      <point x="398" y="410" type="line"/>
      <point x="416" y="391"/>
      <point x="422" y="371"/>
      <point x="422" y="353" type="curve" smooth="yes"/>
      <point x="422" y="319"/>
      <point x="397" y="292"/>
    </contour>
    <contour>
      <point x="141" y="13" type="curve" smooth="yes"/>
      <point x="141" y="74"/>
      <point x="153" y="118"/>
      <point x="176" y="141" type="curve" smooth="yes"/>
      <point x="188" y="153"/>
      <point x="207" y="162"/>
      <point x="229" y="162" type="curve" smooth="yes"/>
      <point x="261" y="162"/>
      <point x="296" y="144"/>
      <point x="328" y="100" type="curve" smooth="yes"/>
      <point x="373" y="40"/>
      <point x="409" y="0"/>
      <point x="476" y="0" type="curve" smooth="yes"/>
      <point x="532" y="0"/>
      <point x="583" y="27"/>
      <point x="604" y="94" type="curve"/>
      <point x="653" y="27"/>
      <point x="706" y="0"/>
      <point x="773" y="0" type="curve" smooth="yes"/>
      <point x="879" y="0"/>
      <point x="935" y="69"/>
      <point x="935" y="169" type="curve" smooth="yes"/>
      <point x="935" y="255"/>
      <point x="887" y="357"/>
      <point x="823" y="427" type="curve" smooth="yes"/>
      <point x="819" y="432"/>
      <point x="813" y="435"/>
      <point x="806" y="435" type="curve" smooth="yes"/>
      <point x="793" y="435"/>
      <point x="783" y="425"/>
      <point x="783" y="412" type="curve" smooth="yes"/>
      <point x="783" y="407"/>
      <point x="785" y="401"/>
      <point x="789" y="397" type="curve" smooth="yes"/>
      <point x="845" y="335"/>
      <point x="889" y="245"/>
      <point x="889" y="169" type="curve" smooth="yes"/>
      <point x="889" y="97"/>
      <point x="851" y="46"/>
      <point x="773" y="46" type="curve" smooth="yes"/>
      <point x="710" y="46"/>
      <point x="666" y="78"/>
      <point x="622" y="150" type="curve" smooth="yes"/>
      <point x="620" y="153"/>
      <point x="617" y="158"/>
      <point x="614" y="163" type="curve"/>
      <point x="614" y="168" type="line" smooth="yes"/>
      <point x="614" y="198"/>
      <point x="608" y="239"/>
      <point x="598" y="270" type="curve" smooth="yes"/>
      <point x="595" y="280"/>
      <point x="586" y="286"/>
      <point x="576" y="286" type="curve" smooth="yes"/>
      <point x="563" y="286"/>
      <point x="553" y="275"/>
      <point x="553" y="263" type="curve" smooth="yes"/>
      <point x="553" y="261"/>
      <point x="554" y="256"/>
      <point x="557" y="244" type="curve" smooth="yes"/>
      <point x="561" y="229"/>
      <point x="568" y="194"/>
      <point x="568" y="168" type="curve" smooth="yes"/>
      <point x="568" y="87"/>
      <point x="530" y="46"/>
      <point x="476" y="46" type="curve" smooth="yes"/>
      <point x="423" y="46"/>
      <point x="399" y="82"/>
      <point x="366" y="128" type="curve" smooth="yes"/>
      <point x="322" y="188"/>
      <point x="271" y="208"/>
      <point x="229" y="208" type="curve" smooth="yes"/>
      <point x="193" y="208"/>
      <point x="164" y="193"/>
      <point x="144" y="173" type="curve" smooth="yes"/>
      <point x="115" y="144"/>
      <point x="95" y="92"/>
      <point x="95" y="13" type="curve" smooth="yes"/>
      <point x="95" y="1"/>
      <point x="106" y="-10"/>
      <point x="118" y="-10" type="curve" smooth="yes"/>
      <point x="130" y="-10"/>
      <point x="141" y="1"/>
    </contour>
  </outline>
</glyph>
<glyph name="knTAc2_RAc2" format="1">
  <advance width="200"/>
  <outline>
    <contour>
      <point x="-112" y="-373" type="curve" smooth="yes"/>
      <point x="-123" y="-374"/>
      <point x="-132" y="-384"/>
      <point x="-132" y="-394" type="curve" smooth="yes"/>
      <point x="-132" y="-405"/>
      <point x="-123" y="-414"/>
      <point x="-111" y="-414" type="curve" smooth="yes"/>
      <point x="-21" y="-414"/>
      <point x="59" y="-380"/>
      <point x="99" y="-341" type="curve" smooth="yes"/>
      <point x="141" y="-299"/>
      <point x="160" y="-249"/>
      <point x="160" y="-178" type="curve" smooth="yes"/>
      <point x="160" y="-139"/>
      <point x="155" y="-95"/>
      <point x="144" y="-60" type="curve" smooth="yes"/>
      <point x="142" y="-52"/>
      <point x="133" y="-45"/>
      <point x="123" y="-45" type="curve" smooth="yes"/>
      <point x="112" y="-45"/>
      <point x="103" y="-56"/>
      <point x="103" y="-66" type="curve" smooth="yes"/>
      <point x="103" y="-70"/>
      <point x="107" y="-85"/>
      <point x="110" y="-100" type="curve" smooth="yes"/>
      <point x="113" y="-115"/>
      <point x="118" y="-143"/>
      <point x="118" y="-178" type="curve" smooth="yes"/>
      <point x="118" y="-235"/>
      <point x="103" y="-277"/>
      <point x="69" y="-311" type="curve" smooth="yes"/>
      <point x="35" y="-346"/>
      <point x="-34" y="-369"/>
    </contour>
    <contour>
      <point x="-382" y="-269" type="curve" smooth="yes"/>
      <point x="-116" y="-269" type="line" smooth="yes"/>
      <point x="-9" y="-269"/>
      <point x="20" y="-217"/>
      <point x="20" y="-165" type="curve" smooth="yes"/>
      <point x="20" y="-113"/>
      <point x="-17" y="-73"/>
      <point x="-74" y="-73" type="curve" smooth="yes"/>
      <point x="-132" y="-73"/>
      <point x="-175" y="-118"/>
      <point x="-175" y="-184" type="curve" smooth="yes"/>
      <point x="-175" y="-199"/>
      <point x="-172" y="-214"/>
      <point x="-170" y="-227" type="curve"/>
      <point x="-382" y="-227" type="line" smooth="yes"/>
      <point x="-393" y="-227"/>
      <point x="-403" y="-237"/>
      <point x="-403" y="-248" type="curve" smooth="yes"/>
      <point x="-403" y="-259"/>
      <point x="-393" y="-269"/>
    </contour>
    <contour>
      <point x="-133" y="-184" type="curve" smooth="yes"/>
      <point x="-133" y="-146"/>
      <point x="-110" y="-115"/>
      <point x="-74" y="-115" type="curve" smooth="yes"/>
      <point x="-43" y="-115"/>
      <point x="-22" y="-137"/>
      <point x="-22" y="-165" type="curve" smooth="yes"/>
      <point x="-22" y="-201"/>
      <point x="-53" y="-227"/>
      <point x="-116" y="-227" type="curve" smooth="yes"/>
      <point x="-126" y="-227" type="line"/>
      <point x="-129" y="-215"/>
      <point x="-133" y="-199"/>
    </contour>
  </outline>
</glyph>
<glyph name="knTHAc2" format="1">
  <advance width="0"/>
  <outline>
    <contour>
      <point x="20" y="-376" type="curve" smooth="yes"/>
      <point x="82" y="-376"/>
      <point x="129" y="-336"/>
      <point x="129" y="-275" type="curve" smooth="yes"/>
      <point x="129" y="-213"/>
      <point x="61" y="-106"/>
      <point x="-79" y="-106" type="curve" smooth="yes"/>
      <point x="-210" y="-106"/>
      <point x="-276" y="-212"/>
      <point x="-276" y="-275" type="curve" smooth="yes"/>
      <point x="-276" y="-339"/>
      <point x="-235" y="-376"/>
      <point x="-173" y="-376" type="curve" smooth="yes"/>
      <point x="-137" y="-376"/>
      <point x="-107" y="-364"/>
      <point x="-80" y="-337" type="curve"/>
      <point x="-50" y="-362"/>
      <point x="-24" y="-376"/>
    </contour>
    <contour>
      <point x="-79" y="-148" type="curve" smooth="yes"/>
      <point x="27" y="-148"/>
      <point x="87" y="-225"/>
      <point x="87" y="-275" type="curve" smooth="yes"/>
      <point x="87" y="-312"/>
      <point x="56" y="-334"/>
      <point x="20" y="-334" type="curve" smooth="yes"/>
      <point x="-19" y="-334"/>
      <point x="-39" y="-319"/>
      <point x="-65" y="-293" type="curve" smooth="yes"/>
      <point x="-69" y="-290"/>
      <point x="-75" y="-287"/>
      <point x="-80" y="-287" type="curve" smooth="yes"/>
      <point x="-82" y="-287" type="line" smooth="yes"/>
      <point x="-88" y="-287"/>
      <point x="-94" y="-290"/>
      <point x="-98" y="-295" type="curve" smooth="yes"/>
      <point x="-119" y="-322"/>
      <point x="-143" y="-334"/>
      <point x="-173" y="-334" type="curve" smooth="yes"/>
      <point x="-209" y="-334"/>
      <point x="-234" y="-313"/>
      <point x="-234" y="-275" type="curve" smooth="yes"/>
      <point x="-234" y="-226"/>
      <point x="-178" y="-148"/>
    </contour>
    <contour>
      <point x="-80" y="-257" type="curve" smooth="yes"/>
      <point x="-64" y="-257"/>
      <point x="-48" y="-244"/>
      <point x="-48" y="-224" type="curve" smooth="yes"/>
      <point x="-48" y="-207"/>
      <point x="-63" y="-192"/>
      <point x="-80" y="-192" type="curve" smooth="yes"/>
      <point x="-97" y="-192"/>
      <point x="-112" y="-207"/>
      <point x="-112" y="-224" type="curve" smooth="yes"/>
      <point x="-112" y="-244"/>
      <point x="-97" y="-257"/>
    </contour>
    <contour>
      <point x="-56" y="-429" type="line" smooth="yes"/>
      <point x="-56" y="-418"/>
      <point x="-66" y="-408"/>
      <point x="-77" y="-408" type="curve" smooth="yes"/>
      <point x="-88" y="-408"/>
      <point x="-98" y="-418"/>
      <point x="-98" y="-429" type="curve" smooth="yes"/>
      <point x="-98" y="-495" type="line" smooth="yes"/>
      <point x="-98" y="-506"/>
      <point x="-88" y="-516"/>
      <point x="-77" y="-516" type="curve" smooth="yes"/>
      <point x="-66" y="-516"/>
      <point x="-56" y="-506"/>
      <point x="-56" y="-495" type="curve" smooth="yes"/>
    </contour>
  </outline>
</glyph>
<glyph name="knTO" format="1">
  <advance width="1263"/>
  <outline>
    <contour>
      <point x="432" y="508" type="curve" smooth="yes"/>
      <point x="432" y="553"/>
      <point x="460" y="589"/>
      <point x="503" y="589" type="curve" smooth="yes"/>
      <point x="539" y="589"/>
      <point x="566" y="566"/>
      <point x="566" y="532" type="curve" smooth="yes"/>
      <point x="566" y="487"/>
      <point x="528" y="456"/>
      <point x="439" y="456" type="curve"/>
      <point x="436" y="470"/>
      <point x="432" y="489"/>
    </contour>
    <contour>
      <point x="313" y="193" type="curve" smooth="yes"/>
      <point x="267" y="193"/>
      <point x="233" y="211"/>
      <point x="233" y="241" type="curve" smooth="yes"/>
      <point x="233" y="272"/>
      <point x="277" y="293"/>
      <point x="337" y="293" type="curve" smooth="yes"/>
      <point x="371" y="293"/>
      <point x="402" y="289"/>
      <point x="428" y="282" type="curve"/>
      <point x="424" y="233"/>
      <point x="380" y="193"/>
    </contour>
    <contour>
      <point x="1063" y="42" type="curve" smooth="yes"/>
      <point x="1022" y="42"/>
      <point x="997" y="72"/>
      <point x="997" y="106" type="curve" smooth="yes"/>
      <point x="997" y="149"/>
      <point x="1027" y="183"/>
      <point x="1084" y="183" type="curve" smooth="yes"/>
      <point x="1107" y="183"/>
      <point x="1130" y="178"/>
      <point x="1150" y="172" type="curve"/>
      <point x="1150" y="167" type="line" smooth="yes"/>
      <point x="1150" y="93"/>
      <point x="1116" y="42"/>
    </contour>
    <contour>
      <point x="729" y="0" type="curve" smooth="yes"/>
      <point x="812" y="0"/>
      <point x="853" y="50"/>
      <point x="853" y="125" type="curve" smooth="yes"/>
      <point x="853" y="178"/>
      <point x="828" y="228"/>
      <point x="828" y="288" type="curve" smooth="yes"/>
      <point x="828" y="344"/>
      <point x="868" y="410"/>
      <point x="947" y="410" type="curve" smooth="yes"/>
      <point x="1027" y="410"/>
      <point x="1122" y="341"/>
      <point x="1145" y="221" type="curve"/>
      <point x="1125" y="226"/>
      <point x="1104" y="229"/>
      <point x="1084" y="229" type="curve" smooth="yes"/>
      <point x="993" y="229"/>
      <point x="951" y="171"/>
      <point x="951" y="106" type="curve" smooth="yes"/>
      <point x="951" y="48"/>
      <point x="992" y="-4"/>
      <point x="1063" y="-4" type="curve" smooth="yes"/>
      <point x="1136" y="-4"/>
      <point x="1196" y="55"/>
      <point x="1196" y="167" type="curve" smooth="yes"/>
      <point x="1196" y="354"/>
      <point x="1057" y="456"/>
      <point x="947" y="456" type="curve" smooth="yes"/>
      <point x="838" y="456"/>
      <point x="782" y="366"/>
      <point x="782" y="288" type="curve" smooth="yes"/>
      <point x="782" y="228"/>
      <point x="807" y="178"/>
      <point x="807" y="125" type="curve" smooth="yes"/>
      <point x="807" y="78"/>
      <point x="782" y="46"/>
      <point x="729" y="46" type="curve" smooth="yes"/>
      <point x="674" y="46"/>
      <point x="623" y="96"/>
      <point x="585" y="158" type="curve"/>
      <point x="585" y="163" type="line" smooth="yes"/>
      <point x="585" y="224"/>
      <point x="551" y="284"/>
      <point x="473" y="316" type="curve"/>
      <point x="471" y="346"/>
      <point x="466" y="378"/>
      <point x="455" y="410" type="curve"/>
      <point x="582" y="415"/>
      <point x="612" y="474"/>
      <point x="612" y="532" type="curve" smooth="yes"/>
      <point x="612" y="590"/>
      <point x="569" y="635"/>
      <point x="503" y="635" type="curve" smooth="yes"/>
      <point x="436" y="635"/>
      <point x="386" y="583"/>
      <point x="386" y="508" type="curve" smooth="yes"/>
      <point x="386" y="490"/>
      <point x="389" y="471"/>
      <point x="392" y="456" type="curve"/>
      <point x="100" y="456" type="line" smooth="yes"/>
      <point x="88" y="456"/>
      <point x="77" y="445"/>
      <point x="77" y="433" type="curve" smooth="yes"/>
      <point x="77" y="421"/>
      <point x="88" y="410"/>
      <point x="100" y="410" type="curve" smooth="yes"/>
      <point x="406" y="410" type="line"/>
      <point x="418" y="383"/>
      <point x="423" y="356"/>
      <point x="426" y="330" type="curve"/>
      <point x="400" y="336"/>
      <point x="370" y="339"/>
      <point x="337" y="339" type="curve" smooth="yes"/>
      <point x="225" y="339"/>
      <point x="187" y="286"/>
      <point x="187" y="241" type="curve" smooth="yes"/>
      <point x="187" y="196"/>
      <point x="219" y="147"/>
      <point x="312" y="147" type="curve" smooth="yes"/>
      <point x="406" y="147"/>
      <point x="460" y="201"/>
      <point x="472" y="264" type="curve"/>
      <point x="515" y="241"/>
      <point x="539" y="205"/>
      <point x="539" y="163" type="curve" smooth="yes"/>
      <point x="539" y="89"/>
      <point x="462" y="37"/>
      <point x="342" y="37" type="curve" smooth="yes"/>
      <point x="256" y="37"/>
      <point x="183" y="55"/>
      <point x="136" y="78" type="curve" smooth="yes"/>
      <point x="133" y="80"/>
      <point x="129" y="81"/>
      <point x="125" y="81" type="curve" smooth="yes"/>
      <point x="114" y="81"/>
      <point x="103" y="70"/>
      <point x="103" y="57" type="curve" smooth="yes"/>
      <point x="103" y="49"/>
      <point x="108" y="42"/>
      <point x="116" y="38" type="curve" smooth="yes"/>
      <point x="167" y="12"/>
      <point x="248" y="-9"/>
      <point x="342" y="-9" type="curve" smooth="yes"/>
      <point x="466" y="-9"/>
      <point x="541" y="37"/>
      <point x="571" y="98" type="curve"/>
      <point x="620" y="31"/>
      <point x="674" y="0"/>
    </contour>
  </outline>
</glyph>
<glyph name="knTTHAc2.following" format="1">
  <advance width="471"/>
  <outline>
    <contour>
      <point x="372" y="-92" type="curve" smooth="yes"/>
      <point x="264" y="-92"/>
      <point x="215" y="-177"/>
      <point x="215" y="-242" type="curve" smooth="yes"/>
      <point x="215" y="-310"/>
      <point x="263" y="-387"/>
      <point x="374" y="-387" type="curve" smooth="yes"/>
      <point x="479" y="-387"/>
      <point x="530" y="-309"/>
      <point x="530" y="-242" type="curve" smooth="yes"/>
      <point x="530" y="-176"/>
      <point x="480" y="-92"/>
    </contour>
    <contour>
      <point x="372" y="-134" type="curve" smooth="yes"/>
      <point x="450" y="-134"/>
      <point x="488" y="-194"/>
      <point x="488" y="-242" type="curve" smooth="yes"/>
      <point x="488" y="-291"/>
      <point x="449" y="-345"/>
      <point x="374" y="-345" type="curve" smooth="yes"/>
      <point x="295" y="-345"/>
      <point x="257" y="-292"/>
      <point x="257" y="-242" type="curve" smooth="yes"/>
      <point x="257" y="-195"/>
      <point x="294" y="-134"/>
    </contour>
    <contour>
      <point x="372" y="-270" type="curve" smooth="yes"/>
      <point x="387" y="-270"/>
      <point x="403" y="-258"/>
      <point x="403" y="-239" type="curve" smooth="yes"/>
      <point x="403" y="-220"/>
      <point x="387" y="-208"/>
      <point x="372" y="-208" type="curve" smooth="yes"/>
      <point x="353" y="-208"/>
      <point x="341" y="-220"/>
      <point x="341" y="-239" type="curve" smooth="yes"/>
      <point x="341" y="-258"/>
      <point x="353" y="-270"/>
    </contour>
  </outline>
</glyph>
<glyph name="knTU" format="1">
  <advance width="974"/>
  <outline>
    <contour>
      <point x="313" y="193" type="curve" smooth="yes"/>
      <point x="311" y="193" type="line" smooth="yes"/>
      <point x="264" y="194"/>
      <point x="233" y="212"/>
      <point x="233" y="241" type="curve" smooth="yes"/>
      <point x="233" y="272"/>
      <point x="277" y="293"/>
      <point x="337" y="293" type="curve" smooth="yes"/>
      <point x="371" y="293"/>
      <point x="402" y="289"/>
      <point x="428" y="282" type="curve"/>
      <point x="424" y="233"/>
      <point x="380" y="193"/>
    </contour>
    <contour>
      <point x="745" y="0" type="curve" smooth="yes"/>
      <point x="851" y="0"/>
      <point x="907" y="69"/>
      <point x="907" y="169" type="curve" smooth="yes"/>
      <point x="907" y="255"/>
      <point x="859" y="357"/>
      <point x="795" y="427" type="curve" smooth="yes"/>
      <point x="791" y="432"/>
      <point x="785" y="435"/>
      <point x="778" y="435" type="curve" smooth="yes"/>
      <point x="765" y="435"/>
      <point x="755" y="425"/>
      <point x="755" y="412" type="curve" smooth="yes"/>
      <point x="755" y="407"/>
      <point x="757" y="401"/>
      <point x="761" y="397" type="curve" smooth="yes"/>
      <point x="817" y="335"/>
      <point x="861" y="245"/>
      <point x="861" y="169" type="curve" smooth="yes"/>
      <point x="861" y="97"/>
      <point x="823" y="46"/>
      <point x="745" y="46" type="curve" smooth="yes"/>
      <point x="682" y="46"/>
      <point x="641" y="78"/>
      <point x="600" y="140" type="curve" smooth="yes"/>
      <point x="592" y="153"/>
      <point x="589" y="157"/>
      <point x="585" y="163" type="curve"/>
      <point x="585" y="224"/>
      <point x="551" y="284"/>
      <point x="473" y="316" type="curve"/>
      <point x="471" y="346"/>
      <point x="466" y="378"/>
      <point x="455" y="410" type="curve"/>
      <point x="528" y="414"/>
      <point x="572" y="444"/>
      <point x="606" y="499" type="curve" smooth="yes"/>
      <point x="608" y="503"/>
      <point x="609" y="507"/>
      <point x="609" y="511" type="curve" smooth="yes"/>
      <point x="609" y="524"/>
      <point x="600" y="534"/>
      <point x="586" y="534" type="curve" smooth="yes"/>
      <point x="578" y="534"/>
      <point x="571" y="530"/>
      <point x="566" y="523" type="curve" smooth="yes"/>
      <point x="538" y="478"/>
      <point x="501" y="456"/>
      <point x="438" y="456" type="curve" smooth="yes"/>
      <point x="100" y="456" type="line" smooth="yes"/>
      <point x="88" y="456"/>
      <point x="77" y="445"/>
      <point x="77" y="433" type="curve" smooth="yes"/>
      <point x="77" y="421"/>
      <point x="88" y="410"/>
      <point x="100" y="410" type="curve" smooth="yes"/>
      <point x="406" y="410" type="line"/>
      <point x="418" y="383"/>
      <point x="423" y="356"/>
      <point x="426" y="330" type="curve"/>
      <point x="400" y="336"/>
      <point x="370" y="339"/>
      <point x="337" y="339" type="curve" smooth="yes"/>
      <point x="225" y="339"/>
      <point x="187" y="286"/>
      <point x="187" y="241" type="curve" smooth="yes"/>
      <point x="187" y="196"/>
      <point x="218" y="148"/>
      <point x="311" y="147" type="curve" smooth="yes"/>
      <point x="313" y="147" type="line" smooth="yes"/>
      <point x="405" y="147"/>
      <point x="460" y="202"/>
      <point x="472" y="264" type="curve"/>
      <point x="515" y="241"/>
      <point x="539" y="205"/>
      <point x="539" y="163" type="curve" smooth="yes"/>
      <point x="539" y="89"/>
      <point x="462" y="37"/>
      <point x="342" y="37" type="curve" smooth="yes"/>
      <point x="256" y="37"/>
      <point x="183" y="55"/>
      <point x="136" y="78" type="curve" smooth="yes"/>
      <point x="133" y="80"/>
      <point x="129" y="81"/>
      <point x="125" y="81" type="curve" smooth="yes"/>
      <point x="113" y="81"/>
      <point x="103" y="70"/>
      <point x="103" y="57" type="curve" smooth="yes"/>
      <point x="103" y="49"/>
      <point x="108" y="42"/>
      <point x="116" y="38" type="curve" smooth="yes"/>
      <point x="167" y="12"/>
      <point x="248" y="-9"/>
      <point x="342" y="-9" type="curve" smooth="yes"/>
      <point x="467" y="-9"/>
      <point x="542" y="37"/>
      <point x="571" y="100" type="curve"/>
      <point x="622" y="29"/>
      <point x="676" y="0"/>
    </contour>
  </outline>
</glyph>
<glyph name="macroncmb.cap" format="1">
  <advance width="0"/>
  <outline>
    <contour>
      <point x="110" y="664" type="line" smooth="yes"/>
      <point x="122" y="664"/>
      <point x="132" y="674"/>
      <point x="132" y="686" type="curve" smooth="yes"/>
      <point x="132" y="698"/>
      <point x="122" y="708"/>
      <point x="110" y="708" type="curve" smooth="yes"/>
      <point x="-119" y="708" type="line" smooth="yes"/>
      <point x="-131" y="708"/>
      <point x="-141" y="698"/>
      <point x="-141" y="686" type="curve" smooth="yes"/>
      <point x="-141" y="674"/>
      <point x="-131" y="664"/>
      <point x="-119" y="664" type="curve" smooth="yes"/>
    </contour>
  </outline>
</glyph>
<glyph name="ogonekcmb" format="1">
  <advance width="0"/>
  <outline>
    <contour>
      <point x="-9" y="-221" type="curve" smooth="yes"/>
      <point x="3" y="-221"/>
      <point x="13" y="-211"/>
      <point x="13" y="-199" type="curve" smooth="yes"/>
      <point x="13" y="-187"/>
      <point x="3" y="-177"/>
      <point x="-9" y="-177" type="curve" smooth="yes"/>
      <point x="-58" y="-177"/>
      <point x="-105" y="-167"/>
      <point x="-105" y="-139" type="curve" smooth="yes"/>
      <point x="-105" y="-115"/>
      <point x="-84" y="-92"/>
      <point x="-10" y="-31" type="curve" smooth="yes"/>
      <point x="-6" y="-27"/>
      <point x="-2" y="-20"/>
      <point x="-2" y="-14" type="curve" smooth="yes"/>
      <point x="-2" y="21" type="line" smooth="yes"/>
      <point x="-2" y="33"/>
      <point x="-12" y="43"/>
      <point x="-24" y="43" type="curve" smooth="yes"/>
      <point x="-36" y="43"/>
      <point x="-46" y="33"/>
      <point x="-46" y="21" type="curve" smooth="yes"/>
      <point x="-46" y="-4" type="line"/>
      <point x="-137" y="-78"/>
      <point x="-149" y="-110"/>
      <point x="-149" y="-139" type="curve" smooth="yes"/>
      <point x="-149" y="-181"/>
      <point x="-116" y="-221"/>
    </contour>
  </outline>
</glyph>
